<svg width="162" height="40" viewBox="0 0 162 40" fill="none" xmlns="http://www.w3.org/2000/svg">
<path d="M150.211 21.6102C148.341 21.6102 146.742 21.2854 145.413 20.6358C144.094 19.9766 143.044 19.0798 142.265 17.9455C141.495 16.8111 140.991 15.5217 140.753 14.0772C140.524 12.6229 140.565 11.1056 140.877 9.52534C141.271 7.57665 141.944 5.88972 142.898 4.46455C143.86 3.03938 145.083 1.939 146.568 1.1634C148.062 0.3878 149.808 0 151.806 0C153.611 0 155.169 0.324783 156.48 0.974347C157.79 1.61422 158.844 2.49646 159.642 3.62108C160.439 4.73601 160.961 6.0206 161.209 7.47485C161.456 8.91941 161.415 10.4464 161.085 12.0557C160.7 13.9463 160.031 15.609 159.078 17.0438C158.125 18.4787 156.906 19.5985 155.421 20.4031C153.936 21.2078 152.2 21.6102 150.211 21.6102ZM150.307 16.7384C150.94 16.7384 151.526 16.6124 152.067 16.3603C152.608 16.1083 153.089 15.7495 153.51 15.2842C153.941 14.8091 154.303 14.2468 154.596 13.5972C154.899 12.9477 155.132 12.2254 155.297 11.4304C155.472 10.5676 155.522 9.74833 155.449 8.97273C155.375 8.18743 155.183 7.48939 154.871 6.87861C154.569 6.25813 154.156 5.77338 153.634 5.42436C153.112 5.06564 152.479 4.88628 151.737 4.88628C151.068 4.88628 150.454 5.01717 149.895 5.27893C149.345 5.5407 148.855 5.91395 148.424 6.3987C147.993 6.87376 147.627 7.44092 147.324 8.10018C147.022 8.75944 146.788 9.48172 146.623 10.267C146.449 11.1396 146.403 11.9685 146.486 12.7538C146.577 13.5294 146.788 14.2177 147.118 14.8188C147.448 15.4199 147.883 15.8901 148.424 16.2294C148.965 16.5688 149.592 16.7384 150.307 16.7384Z" fill="#1C1C1C"/>
<path d="M122.851 21.1883C123.071 20.0928 123.281 19.036 123.483 18.018C123.694 16.9904 123.937 15.8076 124.212 14.4697L125.627 7.41655C125.902 6.04955 126.145 4.83283 126.356 3.76638C126.576 2.69993 126.801 1.59469 127.03 0.450684H140.502L139.553 5.23517C138.747 5.23517 137.885 5.23517 136.969 5.23517C136.052 5.23517 134.971 5.23517 133.725 5.23517H129.257L132.364 1.41049C132.134 2.53511 131.914 3.63065 131.704 4.6971C131.493 5.76355 131.25 6.97542 130.975 8.33272L129.944 13.5099C129.687 14.8187 129.454 15.9918 129.243 17.0291C129.041 18.0568 128.831 19.1184 128.611 20.214L127.401 16.4038H131.882C132.918 16.4038 133.899 16.4038 134.824 16.4038C135.75 16.4038 136.639 16.4038 137.491 16.4038L136.515 21.1883H122.851ZM128.748 12.9427L129.614 8.59449H133.092C134.256 8.59449 135.255 8.59449 136.089 8.59449C136.923 8.59449 137.729 8.59449 138.508 8.59449L137.656 12.9427C136.822 12.9427 135.988 12.9427 135.154 12.9427C134.329 12.9427 133.349 12.9427 132.212 12.9427H128.748Z" fill="#1C1C1C"/>
<path d="M113.588 21.6102C112.589 21.6102 111.595 21.5278 110.605 21.363C109.615 21.1981 108.717 20.98 107.911 20.7085C107.104 20.4274 106.481 20.1268 106.041 19.8069L107.374 14.8043C107.952 15.2309 108.57 15.6041 109.23 15.9241C109.899 16.2343 110.582 16.4767 111.279 16.6512C111.975 16.816 112.667 16.8984 113.354 16.8984C113.84 16.8984 114.253 16.8499 114.592 16.753C114.931 16.656 115.206 16.5009 115.417 16.2876C115.627 16.0646 115.774 15.7641 115.856 15.386C115.93 14.9982 115.852 14.6492 115.623 14.3389C115.403 14.019 115.05 13.7184 114.564 13.4373C114.078 13.1464 113.487 12.8507 112.791 12.5502C111.719 12.0945 110.82 11.5613 110.096 10.9505C109.372 10.3397 108.868 9.59806 108.584 8.72551C108.309 7.84326 108.296 6.76227 108.543 5.48253C108.781 4.27065 109.194 3.26237 109.78 2.45768C110.376 1.6433 111.187 1.03252 112.213 0.625328C113.24 0.208442 114.523 0 116.063 0C116.75 0 117.446 0.0533223 118.152 0.159967C118.858 0.256917 119.541 0.392646 120.2 0.567157C120.87 0.741667 121.484 0.945262 122.043 1.17794C122.602 1.40093 123.074 1.63846 123.459 1.89053L122.056 6.71864C121.534 6.29206 120.938 5.93819 120.269 5.65704C119.609 5.37588 118.968 5.16744 118.345 5.03171C117.721 4.88628 117.213 4.81357 116.819 4.81357C116.425 4.81357 116.053 4.8572 115.705 4.94445C115.366 5.02201 115.077 5.16259 114.839 5.36619C114.61 5.56978 114.459 5.84609 114.385 6.19511C114.321 6.55382 114.363 6.8883 114.509 7.19854C114.665 7.50878 114.949 7.81418 115.362 8.11472C115.774 8.40557 116.338 8.70612 117.052 9.01636C118.427 9.60775 119.49 10.2282 120.242 10.8778C120.993 11.5274 121.479 12.2593 121.699 13.0737C121.919 13.8784 121.923 14.814 121.713 15.8804C121.447 17.2377 120.998 18.3381 120.365 19.1816C119.742 20.0153 118.876 20.631 117.767 21.0285C116.667 21.4163 115.274 21.6102 113.588 21.6102Z" fill="#1C1C1C"/>
<path d="M80.3203 21.1883C80.5494 20.0928 80.7648 19.036 80.9664 18.018C81.1681 16.9904 81.4063 15.8124 81.6813 14.4842L83.0972 7.41655C83.3722 6.03986 83.615 4.81828 83.8258 3.75183C84.0458 2.68538 84.2703 1.585 84.4994 0.450684H89.4484C89.9524 1.71104 90.429 2.90837 90.8781 4.04269C91.3363 5.177 91.7762 6.28223 92.1978 7.35838L93.9299 11.663H94.3286L95.1809 7.402C95.4558 6.0447 95.6987 4.83283 95.9095 3.76638C96.1294 2.69993 96.354 1.59469 96.5831 0.450684H101.889C101.66 1.59469 101.436 2.69993 101.216 3.76638C101.005 4.83283 100.762 6.0447 100.487 7.402L99.0713 14.4551C98.7964 15.8027 98.5581 16.9855 98.3565 18.0035C98.1548 19.0215 97.9395 20.0831 97.7103 21.1883H92.8989C92.459 20.1025 92.0053 19.0069 91.5379 17.9017C91.0797 16.7868 90.5848 15.5846 90.0532 14.2952L88.2524 9.96148H87.8812L86.9739 14.4551C86.6989 15.8027 86.4607 16.9855 86.259 18.0035C86.0574 19.0118 85.8466 20.0734 85.6267 21.1883H80.3203Z" fill="#1C1C1C"/>
<path d="M58.9355 21.1883C59.4946 20.054 60.0766 18.8712 60.6814 17.6399C61.2863 16.4087 61.8637 15.2307 62.4136 14.1061L65.8916 7.00936C66.4873 5.78779 67.0371 4.65832 67.5412 3.62095C68.0544 2.58359 68.5722 1.52683 69.0946 0.450684H76.3668C76.4585 1.52683 76.5501 2.57389 76.6418 3.59187C76.7426 4.60984 76.848 5.75385 76.9579 7.0239L77.6178 14.237C77.7278 15.3422 77.8378 16.5056 77.9477 17.7272C78.0577 18.9391 78.1631 20.0928 78.2639 21.1883H72.6964C72.6505 20.1509 72.6047 19.0893 72.5589 18.0035C72.5131 16.908 72.4718 15.8609 72.4352 14.8623L72.0365 5.45331H71.6516L67.6787 14.8041C67.2388 15.8318 66.7851 16.8934 66.3177 17.989C65.8503 19.0845 65.3967 20.1509 64.9568 21.1883H58.9355ZM65.053 17.3491L66.5377 12.9136H74.6347L74.291 17.3491H65.053Z" fill="#1C1C1C"/>
<path d="M40.7168 21.1883C40.9459 20.0831 41.1613 19.0215 41.3629 18.0035C41.5645 16.9855 41.8028 15.8124 42.0778 14.4842L43.4937 7.41655C43.7686 6.03986 44.0115 4.82313 44.2223 3.76638C44.4423 2.69993 44.6668 1.59469 44.8959 0.450684C45.5099 0.450684 46.2523 0.450684 47.1229 0.450684C47.9936 0.450684 48.9192 0.450684 49.8998 0.450684C50.8896 0.450684 51.8611 0.450684 52.8142 0.450684C54.473 0.450684 55.8431 0.707601 56.9246 1.22144C58.0152 1.72558 58.7713 2.49148 59.1929 3.51915C59.6236 4.54682 59.6832 5.8508 59.3716 7.43109C59.1241 8.67205 58.6888 9.69487 58.0656 10.4996C57.4516 11.3042 56.613 11.9005 55.5499 12.2883C54.4959 12.6761 53.1854 12.8651 51.6182 12.8554L54.2302 10.8922L55.8386 15.095C56.086 15.7446 56.3472 16.4377 56.6221 17.1746C56.9063 17.9114 57.1812 18.6337 57.447 19.3414C57.7127 20.0394 57.9464 20.6551 58.1481 21.1883H51.8932C51.6365 20.4127 51.3937 19.671 51.1646 18.9633C50.9354 18.2556 50.7063 17.5575 50.4772 16.8692L48.6901 11.154L51.5632 13.7135H46.7518L47.5216 9.85969H50.6972C51.1829 9.85969 51.6091 9.79667 51.9756 9.67064C52.3514 9.5349 52.663 9.30223 52.9104 8.9726C53.1579 8.63327 53.3458 8.14852 53.4741 7.51834C53.5566 7.07237 53.5657 6.69427 53.5016 6.38403C53.4466 6.07379 53.332 5.81687 53.1579 5.61327C52.9929 5.40968 52.7821 5.25941 52.5255 5.16246C52.2781 5.06551 52.0031 5.01703 51.7007 5.01703H45.4733L50.2573 1.41049C50.0281 2.53511 49.8036 3.63549 49.5837 4.71164C49.3729 5.78779 49.13 6.99966 48.8551 8.34727L47.6316 14.4551C47.3658 15.8027 47.1275 16.9855 46.9167 18.0035C46.7151 19.0215 46.5043 20.0831 46.2844 21.1883H40.7168Z" fill="#1C1C1C"/>
<path d="M19.332 21.1883C19.8911 20.054 20.473 18.8712 21.0779 17.6399C21.6828 16.4087 22.2602 15.2307 22.81 14.1061L26.288 7.00936C26.8837 5.78779 27.4336 4.65832 27.9377 3.62095C28.4509 2.58359 28.9687 1.52683 29.4911 0.450684H36.7633C36.855 1.52683 36.9466 2.57389 37.0382 3.59187C37.1391 4.60984 37.2445 5.75385 37.3544 7.0239L38.0143 14.237C38.1243 15.3422 38.2342 16.5056 38.3442 17.7272C38.4542 18.9391 38.5596 20.0928 38.6604 21.1883H33.0928C33.047 20.1509 33.0012 19.0893 32.9554 18.0035C32.9095 16.908 32.8683 15.8609 32.8316 14.8623L32.433 5.45331H32.0481L28.0752 14.8041C27.6353 15.8318 27.1816 16.8934 26.7142 17.989C26.2468 19.0845 25.7931 20.1509 25.3532 21.1883H19.332ZM25.4495 17.3491L26.9342 12.9136H35.0312L34.6875 17.3491H25.4495Z" fill="#1C1C1C"/>
<path d="M11.4396 21.5956C9.49671 21.5956 7.85164 21.266 6.50443 20.6067C5.16638 19.9475 4.11244 19.0555 3.3426 17.9309C2.58193 16.7966 2.0962 15.5023 1.88542 14.0481C1.68379 12.5938 1.73878 11.0717 2.05038 9.48172C2.47196 7.35851 3.17764 5.59887 4.16743 4.20278C5.15722 2.79701 6.42195 1.7451 7.96162 1.04706C9.51045 0.34902 11.3159 0 13.378 0C14.1386 0 14.8764 0.0436275 15.5912 0.130882C16.3153 0.218138 17.0072 0.339325 17.667 0.494444C18.3269 0.649565 18.9455 0.828923 19.5229 1.03252C20.1003 1.23611 20.6181 1.4591 21.0763 1.70147L19.5641 7.11129C18.7302 6.54898 17.942 6.1224 17.1996 5.83155C16.4573 5.531 15.7699 5.32741 15.1376 5.22076C14.5144 5.10442 13.9737 5.04625 13.5154 5.04625C12.8922 5.04625 12.2782 5.13351 11.6733 5.30802C11.0685 5.48253 10.5048 5.76853 9.98244 6.16603C9.46005 6.56352 9.00181 7.09675 8.60773 7.7657C8.21365 8.42496 7.92038 9.24904 7.72792 10.2379C7.55379 11.0717 7.50796 11.8861 7.59045 12.6811C7.67293 13.4664 7.88372 14.1741 8.22281 14.8043C8.56191 15.4345 9.03389 15.9337 9.63876 16.3022C10.2528 16.6706 11.0043 16.8548 11.8933 16.8548C12.4707 16.8548 13.0068 16.8305 13.5017 16.7821C14.0057 16.7239 14.4961 16.6318 14.9726 16.5057C15.4584 16.37 15.9395 16.2052 16.4161 16.0113C16.9018 15.8077 17.4059 15.5702 17.9282 15.2987L17.5983 20.5631C17.2592 20.6988 16.856 20.8297 16.3886 20.9558C15.9212 21.0818 15.4125 21.1933 14.8626 21.2902C14.3128 21.3872 13.7445 21.4599 13.158 21.5084C12.5806 21.5665 12.0078 21.5956 11.4396 21.5956ZM12.2782 20.694C12.489 19.5888 12.6769 18.6096 12.8418 17.7564C13.016 16.9032 13.1901 16.0549 13.3642 15.2115C13.5567 14.2226 13.7262 13.35 13.8729 12.5938C14.0287 11.8279 14.1845 11.0572 14.3403 10.2816H19.6329C19.4862 11.0572 19.335 11.8279 19.1792 12.5938C19.0326 13.35 18.8585 14.2226 18.6568 15.2115C18.4919 16.0549 18.3269 16.8936 18.1619 17.7273C17.997 18.5611 17.8091 19.5064 17.5983 20.5631L12.2782 20.694Z" fill="#1C1C1C"/>
<path d="M58.0579 35.2106L56.4706 30.8349C56.3038 30.3661 56.1422 29.9222 55.9858 29.5031C55.8294 29.0785 55.6496 28.5849 55.4463 28.0225H56.9554C57.1379 28.5519 57.2916 29.0096 57.4167 29.3956C57.5471 29.7761 57.6696 30.1373 57.7843 30.4792C57.9041 30.8156 58.0319 31.1878 58.1674 31.5959L58.8555 33.5976H58.9884L60.4037 31.662C60.7165 31.2319 61.0006 30.8404 61.256 30.4874C61.5167 30.1345 61.7851 29.765 62.0614 29.379C62.3429 28.993 62.6739 28.5408 63.0545 28.0225H64.7825C64.4228 28.4912 64.0631 28.9654 63.7035 29.4452C63.3438 29.9194 62.9893 30.3827 62.64 30.8349L59.3168 35.2106H58.0579ZM57.0414 39.818C57.177 39.1617 57.3047 38.5303 57.4246 37.9237C57.5445 37.3171 57.6774 36.6471 57.8234 35.9137L58.2143 33.9616H59.6374L59.2465 35.9137C59.1005 36.6471 58.965 37.3171 58.8399 37.9237C58.72 38.5303 58.5949 39.1617 58.4645 39.818H57.0414Z" fill="#1C1C1C"/>
<path d="M48.7827 39.9999C47.8444 39.9999 47.0364 39.8152 46.3587 39.4457C45.6811 39.0707 45.1415 38.5634 44.7401 37.9237C44.3387 37.284 44.0781 36.5589 43.9582 35.7482C43.8435 34.9321 43.8748 34.0829 44.052 33.2005C44.2866 32.026 44.6906 31.0389 45.264 30.2393C45.8374 29.4397 46.5568 28.8358 47.4221 28.4278C48.2927 28.0142 49.2857 27.8074 50.4013 27.8074C50.7506 27.8074 51.0946 27.8322 51.4334 27.8818C51.7775 27.9314 52.1085 28.0031 52.4265 28.0969C52.7497 28.1851 53.052 28.2954 53.3335 28.4278C53.6202 28.5546 53.8809 28.7007 54.1155 28.8662L53.7167 30.2475C53.357 29.9828 52.9999 29.7678 52.6454 29.6023C52.291 29.4369 51.9261 29.3183 51.5507 29.2467C51.1754 29.1695 50.7818 29.1309 50.37 29.1309C49.562 29.1309 48.8244 29.2825 48.1572 29.5858C47.4951 29.8891 46.9321 30.3578 46.4682 30.992C46.0043 31.6262 45.6732 32.434 45.4751 33.4156C45.3448 34.0884 45.3136 34.7391 45.3813 35.3677C45.4543 35.9964 45.6341 36.5616 45.9208 37.0634C46.2076 37.5653 46.6063 37.9651 47.1172 38.2628C47.6281 38.5606 48.251 38.7095 48.986 38.7095C49.2467 38.7095 49.5099 38.6902 49.7758 38.6516C50.0468 38.6075 50.3153 38.5468 50.5811 38.4696C50.847 38.3924 51.1102 38.2904 51.3709 38.1636C51.6315 38.0368 51.887 37.8851 52.1372 37.7086L51.9495 39.2389C51.741 39.3657 51.509 39.4788 51.2536 39.5781C51.0034 39.6718 50.7401 39.7518 50.4639 39.8179C50.1876 39.8786 49.9061 39.9227 49.6194 39.9503C49.3379 39.9834 49.059 39.9999 48.7827 39.9999Z" fill="#1C1C1C"/>
<path d="M31.6367 39.818C31.767 39.1672 31.8921 38.5386 32.012 37.932C32.1372 37.3199 32.2727 36.6471 32.4186 35.9137L33.2006 31.9929C33.357 31.2429 33.4951 30.5564 33.615 29.9332C33.7401 29.3101 33.8678 28.6732 33.9981 28.0225H35.2961C35.7549 29.0261 36.198 29.9994 36.6254 30.9424C37.0581 31.8854 37.4777 32.809 37.8843 33.7134L39.5498 37.3861H39.6671L40.7618 31.9846C40.913 31.2347 41.0511 30.5509 41.1763 29.9332C41.3014 29.3156 41.4291 28.6787 41.5594 28.0225H42.8965C42.7662 28.6787 42.6385 29.3156 42.5133 29.9332C42.3935 30.5509 42.2553 31.2347 42.0989 31.9846L41.317 35.9137C41.171 36.6471 41.0355 37.3199 40.9104 37.932C40.7905 38.5386 40.6654 39.1672 40.5351 39.818H39.2762C38.8904 38.9687 38.4838 38.0809 38.0564 37.1545C37.6341 36.228 37.1702 35.2106 36.6645 34.1022L34.9677 30.4047H34.8504L33.7557 35.9137C33.6098 36.6582 33.4769 37.3309 33.357 37.932C33.2371 38.5276 33.112 39.1562 32.9816 39.818H31.6367Z" fill="#1C1C1C"/>
<path d="M22.3506 39.818C22.4809 39.1672 22.606 38.5386 22.7259 37.932C22.851 37.3254 22.9866 36.6526 23.1325 35.9137L23.9144 32.0012C24.0656 31.2512 24.2038 30.5674 24.3289 29.9498C24.454 29.3322 24.5817 28.6897 24.712 28.0225H31.6321L31.3662 29.3046C30.8449 29.3046 30.2872 29.3046 29.6929 29.3046C29.0986 29.3046 28.3975 29.3046 27.5895 29.3046H25.0561L26.0569 28.2293C25.9266 28.8965 25.7989 29.5389 25.6738 30.1566C25.5539 30.7687 25.421 31.4387 25.275 32.1666L24.5634 35.6986C24.4227 36.4155 24.2898 37.08 24.1647 37.6921C24.0448 38.2987 23.9197 38.9274 23.7893 39.5781L23.2967 38.5358H25.8771C26.56 38.5358 27.2038 38.5358 27.8085 38.5358C28.4184 38.5358 29.0048 38.5358 29.5678 38.5358L29.3019 39.818H22.3506ZM24.5009 34.4661L24.7511 33.2171H26.9249C27.6442 33.2171 28.2646 33.2171 28.7859 33.2171C29.3071 33.2171 29.8076 33.2171 30.2872 33.2171L30.0448 34.4661C29.5287 34.4661 29.01 34.4661 28.4887 34.4661C27.9727 34.4661 27.3601 34.4661 26.6512 34.4661H24.5009Z" fill="#1C1C1C"/>
<path d="M16.5115 39.9916C15.4793 39.9916 14.6036 39.8069 13.8842 39.4374C13.1648 39.068 12.5992 38.5661 12.1874 37.932C11.7808 37.2923 11.5202 36.5644 11.4055 35.7482C11.296 34.9321 11.3299 34.0829 11.5071 33.2005C11.7417 32.0204 12.1405 31.0306 12.7035 30.231C13.2717 29.4314 13.9806 28.8276 14.8303 28.4195C15.6852 28.0114 16.6626 27.8074 17.7626 27.8074C18.1587 27.8074 18.5445 27.8349 18.9198 27.8901C19.2951 27.9397 19.6548 28.0142 19.9989 28.1134C20.3481 28.2127 20.6739 28.3312 20.9763 28.4691C21.2786 28.6015 21.5497 28.7531 21.7895 28.9241L21.3907 30.3054C20.9841 30.0077 20.5775 29.7733 20.1709 29.6023C19.7643 29.4314 19.3629 29.3101 18.9667 29.2384C18.5705 29.1667 18.1822 29.1309 17.8016 29.1309C17.2022 29.1309 16.6392 29.2136 16.1127 29.379C15.5862 29.5389 15.1092 29.7926 14.6818 30.14C14.2595 30.4819 13.8972 30.9231 13.5949 31.4635C13.2977 32.0039 13.0736 32.6519 12.9224 33.4073C12.7869 34.0856 12.753 34.7418 12.8208 35.376C12.8885 36.0102 13.0684 36.5809 13.3603 37.0883C13.6522 37.5901 14.0666 37.9899 14.6036 38.2877C15.1405 38.5799 15.8077 38.7261 16.6053 38.7261C16.9024 38.7261 17.1917 38.7123 17.4732 38.6847C17.7547 38.6516 18.0336 38.602 18.3099 38.5358C18.5862 38.4696 18.8625 38.3814 19.1387 38.2711C19.415 38.1608 19.6939 38.0285 19.9754 37.8741L19.9207 39.3051C19.7174 39.3933 19.4854 39.4788 19.2248 39.5615C18.9693 39.6442 18.693 39.7187 18.3959 39.7848C18.104 39.851 17.799 39.9007 17.4811 39.9337C17.1631 39.9723 16.8399 39.9916 16.5115 39.9916ZM18.5758 39.3299C18.6852 38.7509 18.7843 38.2408 18.8729 37.7996C18.9615 37.353 19.0501 36.9118 19.1387 36.4762C19.243 35.9523 19.3342 35.4946 19.4124 35.103C19.4906 34.706 19.5714 34.3034 19.6548 33.8954H20.9997C20.9163 34.3034 20.8355 34.706 20.7573 35.103C20.6791 35.4946 20.5879 35.9523 20.4837 36.4762C20.395 36.9118 20.3064 37.3502 20.2178 37.7914C20.1344 38.2325 20.0354 38.7371 19.9207 39.3051L18.5758 39.3299Z" fill="#1C1C1C"/>
<path d="M0 39.818C0.349262 39.1783 0.711555 38.5083 1.08688 37.8079C1.46742 37.1021 1.82971 36.4321 2.17376 35.7979L4.35534 31.7447C4.72546 31.0499 5.06951 30.4102 5.38749 29.8257C5.70547 29.2356 6.02867 28.6346 6.35708 28.0225H8.24153C8.32494 28.6125 8.40834 29.2026 8.49175 29.7926C8.57515 30.3827 8.66638 31.0389 8.76542 31.7613L9.32841 35.8227C9.41703 36.4734 9.51086 37.1462 9.60991 37.841C9.70895 38.5358 9.80017 39.1948 9.88358 39.818H8.47611C8.3927 39.1342 8.30408 38.4283 8.21025 37.7004C8.11642 36.967 8.0252 36.2666 7.93658 35.5994L7.14683 29.3708H7.0139L3.76108 35.5746C3.40139 36.2584 3.03128 36.9642 2.65074 37.6921C2.2702 38.4145 1.89748 39.1231 1.53258 39.818H0ZM2.66638 36.8567L3.01043 35.6821H8.66377L8.53084 36.8567H2.66638Z" fill="#1C1C1C"/>
<path fill-rule="evenodd" clip-rule="evenodd" d="M68.7308 30.5033L162 30.5033L160.921 35.9076L67.6573 35.9076L68.7308 30.5033Z" fill="#1C1C1C"/>
<path d="M68.7365 35.9076V30.5033L67.6573 35.9076H68.7365Z" fill="#1C1C1C"/>
</svg>
