<svg width="205" height="47" viewBox="0 0 205 47" fill="none" xmlns="http://www.w3.org/2000/svg">
<path d="M190.081 25.392C187.716 25.392 185.692 25.0103 184.01 24.2471C182.34 23.4725 181.012 22.4187 180.027 21.0859C179.052 19.7531 178.415 18.238 178.113 16.5407C177.823 14.8319 177.875 13.0491 178.27 11.1923C178.768 8.90256 179.621 6.92042 180.827 5.24585C182.044 3.57128 183.593 2.27833 185.471 1.36699C187.362 0.455665 189.571 0 192.099 0C194.384 0 196.356 0.38162 198.014 1.14486C199.672 1.89671 201.006 2.93334 202.015 4.25477C203.024 5.56481 203.685 7.0742 203.998 8.78295C204.311 10.4803 204.259 12.2745 203.842 14.1655C203.355 16.3869 202.508 18.3405 201.302 20.0265C200.096 21.7125 198.553 23.0282 196.674 23.9737C194.796 24.9192 192.598 25.392 190.081 25.392ZM190.203 19.6677C191.003 19.6677 191.746 19.5196 192.43 19.2234C193.114 18.9272 193.723 18.5057 194.256 17.9589C194.802 17.4007 195.26 16.74 195.631 15.9768C196.013 15.2135 196.309 14.3649 196.518 13.4307C196.738 12.4169 196.802 11.4543 196.709 10.543C196.617 9.62023 196.373 8.80004 195.979 8.08236C195.596 7.3533 195.074 6.78372 194.413 6.37362C193.752 5.95213 192.952 5.74138 192.012 5.74138C191.166 5.74138 190.389 5.89517 189.681 6.20274C188.985 6.51032 188.365 6.9489 187.82 7.51848C187.275 8.07667 186.811 8.74308 186.428 9.51771C186.046 10.2923 185.75 11.141 185.541 12.0637C185.321 13.089 185.263 14.063 185.367 14.9857C185.483 15.897 185.75 16.7058 186.167 17.4121C186.585 18.1184 187.136 18.6709 187.82 19.0696C188.504 19.4683 189.299 19.6677 190.203 19.6677Z" fill="#310E6A"/>
<path d="M155.459 24.8962C155.737 23.609 156.004 22.3673 156.259 21.1712C156.526 19.9637 156.833 18.5739 157.181 17.0018L158.973 8.71443C159.321 7.10821 159.628 5.67856 159.895 4.42548C160.173 3.1724 160.457 1.87375 160.747 0.529541H177.795L176.595 6.15131C175.575 6.15131 174.484 6.15131 173.325 6.15131C172.165 6.15131 170.796 6.15131 169.219 6.15131H163.566L167.497 1.65731C167.207 2.97874 166.929 4.266 166.662 5.51908C166.395 6.77216 166.088 8.19611 165.74 9.79094L164.435 15.8741C164.111 17.4119 163.815 18.7903 163.548 20.0092C163.293 21.2167 163.026 22.4641 162.748 23.7514L161.217 19.2745H166.888C168.199 19.2745 169.44 19.2745 170.611 19.2745C171.782 19.2745 172.907 19.2745 173.986 19.2745L172.751 24.8962H155.459ZM162.922 15.2077L164.018 10.0985H168.419C169.892 10.0985 171.156 10.0985 172.211 10.0985C173.267 10.0985 174.287 10.0985 175.273 10.0985L174.194 15.2077C173.139 15.2077 172.084 15.2077 171.028 15.2077C169.985 15.2077 168.744 15.2077 167.306 15.2077H162.922Z" fill="#310E6A"/>
<path d="M143.738 25.392C142.474 25.392 141.215 25.2951 139.963 25.1015C138.71 24.9078 137.574 24.6515 136.553 24.3325C135.533 24.0022 134.744 23.649 134.188 23.2731L135.875 17.395C136.606 17.8963 137.388 18.3348 138.223 18.7108C139.07 19.0753 139.934 19.3601 140.815 19.5651C141.697 19.7588 142.572 19.8556 143.442 19.8556C144.057 19.8556 144.579 19.7987 145.008 19.6847C145.437 19.5708 145.785 19.3886 146.052 19.1379C146.318 18.8759 146.504 18.5228 146.608 18.0785C146.701 17.6229 146.602 17.2128 146.312 16.8482C146.034 16.4723 145.588 16.1192 144.973 15.7888C144.358 15.4471 143.61 15.0996 142.729 14.7465C141.372 14.2111 140.236 13.5845 139.319 12.8668C138.403 12.1492 137.765 11.2777 137.406 10.2525C137.058 9.21583 137.04 7.94566 137.354 6.44197C137.655 5.01801 138.177 3.83328 138.919 2.88778C139.673 1.93088 140.699 1.21321 141.998 0.73476C143.297 0.24492 144.921 0 146.869 0C147.739 0 148.62 0.0626537 149.513 0.187961C150.406 0.301877 151.27 0.46136 152.105 0.666409C152.952 0.871458 153.729 1.11068 154.436 1.38408C155.144 1.64609 155.741 1.92519 156.228 2.22137L154.454 7.8944C153.793 7.39317 153.039 6.97737 152.192 6.64702C151.357 6.31666 150.546 6.07174 149.757 5.91226C148.968 5.74138 148.325 5.65594 147.826 5.65594C147.327 5.65594 146.858 5.70721 146.417 5.80973C145.988 5.90087 145.622 6.06604 145.321 6.30527C145.031 6.54449 144.84 6.86915 144.747 7.27925C144.666 7.70074 144.718 8.09376 144.903 8.45829C145.101 8.82282 145.46 9.18166 145.982 9.5348C146.504 9.87655 147.217 10.2297 148.122 10.5942C149.861 11.2891 151.207 12.0182 152.158 12.7814C153.109 13.5447 153.723 14.4047 154.002 15.3616C154.28 16.3071 154.286 17.4064 154.019 18.6595C153.683 20.2543 153.114 21.5473 152.314 22.5383C151.525 23.518 150.43 24.2414 149.026 24.7085C147.635 25.1641 145.872 25.392 143.738 25.392Z" fill="#310E6A"/>
<path d="M101.64 24.8962C101.93 23.609 102.202 22.3673 102.457 21.1712C102.712 19.9637 103.014 18.5796 103.362 17.0189L105.154 8.71443C105.502 7.09682 105.809 5.66147 106.076 4.40839C106.354 3.15531 106.638 1.86236 106.928 0.529541H113.191C113.828 2.01045 114.431 3.41732 115 4.75014C115.58 6.08296 116.136 7.38161 116.67 8.64608L118.862 13.704H119.366L120.445 8.69734C120.793 7.10251 121.1 5.67856 121.367 4.42548C121.645 3.1724 121.929 1.87375 122.219 0.529541H128.934C128.644 1.87375 128.36 3.1724 128.082 4.42548C127.815 5.67856 127.507 7.10251 127.16 8.69734L125.368 16.9848C125.02 18.5682 124.718 19.958 124.463 21.1541C124.208 22.3502 123.935 23.5976 123.646 24.8962H117.557C117 23.6204 116.426 22.3331 115.835 21.0345C115.255 19.7244 114.629 18.3119 113.956 16.7968L111.677 11.7047H111.207L110.059 16.9848C109.711 18.5682 109.41 19.958 109.155 21.1541C108.9 22.3388 108.633 23.5862 108.354 24.8962H101.64Z" fill="#1C1C1C"/>
<path d="M74.5791 24.8962C75.2865 23.5634 76.023 22.1736 76.7884 20.7269C77.5538 19.2802 78.2844 17.8961 78.9803 16.5747L83.3815 8.23598C84.1353 6.80064 84.8311 5.47351 85.469 4.25461C86.1184 3.0357 86.7737 1.79401 87.4347 0.529541H96.6372C96.7532 1.79401 96.8691 3.02431 96.9851 4.22043C97.1127 5.41655 97.2461 6.76077 97.3852 8.25307L98.2202 16.7284C98.3594 18.0271 98.4986 19.3941 98.6377 20.8294C98.7769 22.2534 98.9103 23.609 99.0378 24.8962H91.9925C91.9345 23.6773 91.8765 22.43 91.8185 21.1541C91.7605 19.8668 91.7083 18.6365 91.6619 17.4632L91.1575 6.40763H90.6704L85.6429 17.3949C85.0863 18.6024 84.5122 19.8498 83.9207 21.137C83.3293 22.4243 82.7552 23.6773 82.1985 24.8962H74.5791ZM82.3203 20.3852L84.1991 15.1735H94.4453L94.0104 20.3852H82.3203Z" fill="#1C1C1C"/>
<path d="M51.5244 24.8962C51.8143 23.5976 52.0869 22.3502 52.342 21.1541C52.5972 19.958 52.8987 18.5796 53.2466 17.0189L55.0384 8.71443C55.3863 7.09682 55.6936 5.66717 55.9604 4.42548C56.2387 3.1724 56.5229 1.87375 56.8128 0.529541C57.5898 0.529541 58.5292 0.529541 59.6309 0.529541C60.7327 0.529541 61.904 0.529541 63.1449 0.529541C64.3974 0.529541 65.6267 0.529541 66.8329 0.529541C68.932 0.529541 70.6658 0.831419 72.0343 1.43518C73.4144 2.02754 74.3711 2.92748 74.9046 4.13499C75.4497 5.34251 75.5251 6.87468 75.1308 8.73152C74.8176 10.1896 74.2668 11.3915 73.4781 12.337C72.7011 13.2825 71.64 13.9831 70.2947 14.4387C68.961 14.8944 67.3026 15.1165 65.3194 15.1051L68.6247 12.7983L70.66 17.7366C70.9731 18.4998 71.3036 19.3143 71.6516 20.1801C72.0111 21.0459 72.359 21.8946 72.6953 22.7261C73.0316 23.5463 73.3274 24.2697 73.5825 24.8962H65.6673C65.3426 23.9849 65.0353 23.1135 64.7454 22.2819C64.4554 21.4503 64.1655 20.6301 63.8756 19.8213L61.6141 13.1059L65.2498 16.1133H59.1612L60.1354 11.5851H64.1539C64.7686 11.5851 65.3078 11.5111 65.7717 11.363C66.2472 11.2035 66.6415 10.9301 66.9546 10.5428C67.2678 10.1441 67.5055 9.5745 67.6679 8.83404C67.7723 8.31003 67.7839 7.86575 67.7027 7.50122C67.6331 7.13669 67.4881 6.83481 67.2678 6.59559C67.059 6.35636 66.7923 6.17979 66.4676 6.06588C66.1544 5.95196 65.8065 5.895 65.4238 5.895H57.5434L63.5972 1.65731C63.3073 2.97874 63.0232 4.27169 62.7448 5.53617C62.4781 6.80064 62.1708 8.22459 61.8228 9.80803L60.2746 16.9848C59.9383 18.5682 59.6367 19.958 59.37 21.1541C59.1149 22.3502 58.8481 23.5976 58.5698 24.8962H51.5244Z" fill="#1C1C1C"/>
<path d="M24.4639 24.8962C25.1713 23.5634 25.9077 22.1736 26.6732 20.7269C27.4386 19.2802 28.1692 17.8961 28.865 16.5747L33.2662 8.23598C34.0201 6.80064 34.7159 5.47351 35.3537 4.25461C36.0032 3.0357 36.6584 1.79401 37.3195 0.529541H46.522C46.6379 1.79401 46.7539 3.02431 46.8699 4.22043C46.9975 5.41655 47.1308 6.76077 47.27 8.25307L48.105 16.7284C48.2442 18.0271 48.3833 19.3941 48.5225 20.8294C48.6617 22.2534 48.795 23.609 48.9226 24.8962H41.8772C41.8193 23.6773 41.7613 22.43 41.7033 21.1541C41.6453 19.8668 41.5931 18.6365 41.5467 17.4632L41.0422 6.40763H40.5551L35.5277 17.3949C34.971 18.6024 34.397 19.8498 33.8055 21.137C33.214 22.4243 32.64 23.6773 32.0833 24.8962H24.4639ZM32.2051 20.3852L34.0838 15.1735H44.3301L43.8952 20.3852H32.2051Z" fill="#1C1C1C"/>
<path d="M14.4759 25.3749C12.0173 25.3749 9.93556 24.9875 8.23075 24.2129C6.53754 23.4383 5.20385 22.3903 4.22968 21.0688C3.2671 19.736 2.65244 18.2152 2.3857 16.5065C2.13056 14.7977 2.20015 13.0092 2.59445 11.141C3.12793 8.64625 4.02092 6.57867 5.27343 4.93827C6.52594 3.28648 8.12637 2.05049 10.0747 1.2303C12.0347 0.410098 14.3193 0 16.9287 0C17.8913 0 18.8249 0.0512623 19.7295 0.153786C20.6457 0.256312 21.5213 0.398707 22.3563 0.580972C23.1913 0.763239 23.9741 0.973984 24.7047 1.21321C25.4354 1.45243 26.0906 1.71444 26.6705 1.99923L24.7569 8.35576C23.7016 7.69505 22.7042 7.19382 21.7648 6.85207C20.8254 6.49893 19.9556 6.2597 19.1554 6.1344C18.3668 5.9977 17.6826 5.92935 17.1027 5.92935C16.3141 5.92935 15.5371 6.03187 14.7716 6.23692C14.0062 6.44197 13.293 6.77802 12.6319 7.24508C11.9709 7.71214 11.391 8.33868 10.8923 9.1247C10.3936 9.89933 10.0225 10.8676 9.77899 12.0296C9.55864 13.0092 9.50066 13.9661 9.60503 14.9003C9.70941 15.823 9.97615 16.6546 10.4052 17.395C10.8343 18.1355 11.4316 18.7221 12.197 19.155C12.9741 19.5879 13.925 19.8044 15.05 19.8044C15.7806 19.8044 16.459 19.7759 17.0853 19.7189C17.7232 19.6506 18.3436 19.5423 18.9467 19.3943C19.5613 19.2348 20.1702 19.0411 20.7732 18.8133C21.3879 18.5741 22.0258 18.295 22.6868 17.976L22.2693 24.1617C21.8402 24.3211 21.3299 24.4749 20.7385 24.623C20.147 24.7711 19.5033 24.9021 18.8075 25.016C18.1117 25.1299 17.3926 25.2154 16.6504 25.2723C15.9198 25.3407 15.1949 25.3749 14.4759 25.3749ZM15.5371 24.3154C15.8038 23.0168 16.0415 21.8662 16.2503 20.8638C16.4706 19.8613 16.691 18.8645 16.9113 17.8735C17.1549 16.7115 17.3694 15.6863 17.555 14.7977C17.7521 13.8978 17.9493 12.9922 18.1465 12.0808H24.8439C24.6583 12.9922 24.467 13.8978 24.2698 14.7977C24.0843 15.6863 23.8639 16.7115 23.6088 17.8735C23.4 18.8645 23.1913 19.8499 22.9825 20.8296C22.7738 21.8093 22.536 22.92 22.2693 24.1617L15.5371 24.3154Z" fill="#1C1C1C"/>
<path d="M73.4689 41.3726L71.4603 36.2311C71.2492 35.6803 71.0447 35.1587 70.8468 34.6663C70.6489 34.1673 70.4213 33.5874 70.1641 32.9265H72.0738C72.3046 33.5485 72.4992 34.0863 72.6575 34.5399C72.8225 34.987 72.9775 35.4114 73.1226 35.8131C73.2743 36.2084 73.4359 36.6458 73.6074 37.1252L74.4782 39.4773H74.6464L76.4374 37.203C76.8331 36.6976 77.1927 36.2376 77.5159 35.8229C77.8457 35.4082 78.1854 34.974 78.535 34.5205C78.8913 34.0669 79.3101 33.5356 79.7917 32.9265H81.9784C81.5233 33.4773 81.0681 34.0345 80.613 34.5982C80.1578 35.1555 79.7092 35.6998 79.2673 36.2311L75.062 41.3726H73.4689ZM72.1826 46.7862C72.3541 46.0152 72.5157 45.2733 72.6674 44.5605C72.8192 43.8478 72.9874 43.0605 73.1721 42.1987L73.6668 39.905H75.4677L74.9729 42.1987C74.7882 43.0605 74.6167 43.8478 74.4584 44.5605C74.3067 45.2733 74.1484 46.0152 73.9834 46.7862H72.1826Z" fill="#1C1C1C"/>
<path d="M61.7306 47.0001C60.5433 47.0001 59.5208 46.783 58.6633 46.3489C57.8057 45.9083 57.123 45.3121 56.615 44.5605C56.1071 43.8089 55.7773 42.9568 55.6256 42.0043C55.4804 41.0454 55.52 40.0475 55.7443 39.0108C56.0411 37.6307 56.5524 36.4708 57.278 35.5313C58.0036 34.5918 58.9139 33.8823 60.0089 33.4028C61.1106 32.9168 62.3672 32.6738 63.7789 32.6738C64.2208 32.6738 64.6562 32.703 65.085 32.7613C65.5203 32.8196 65.9392 32.9039 66.3416 33.014C66.7506 33.1177 67.1332 33.2473 67.4894 33.4028C67.8522 33.5518 68.182 33.7235 68.4789 33.9179L67.9742 35.541C67.5191 35.23 67.0672 34.9773 66.6187 34.7829C66.1701 34.5885 65.7083 34.4492 65.2334 34.365C64.7584 34.2743 64.2604 34.2289 63.7393 34.2289C62.7168 34.2289 61.7834 34.4071 60.9391 34.7635C60.1013 35.1198 59.3889 35.6706 58.8018 36.4158C58.2147 37.1609 57.7958 38.1102 57.5451 39.2635C57.3802 40.054 57.3407 40.8186 57.4264 41.5573C57.5188 42.2959 57.7463 42.9601 58.1091 43.5497C58.472 44.1394 58.9766 44.6091 59.6231 44.959C60.2695 45.3089 61.0578 45.4839 61.9879 45.4839C62.3177 45.4839 62.6509 45.4612 62.9873 45.4158C63.3303 45.364 63.67 45.2927 64.0064 45.202C64.3429 45.1113 64.676 44.9914 65.0058 44.8424C65.3356 44.6933 65.6589 44.5152 65.9755 44.3078L65.738 46.1059C65.4742 46.2549 65.1806 46.3877 64.8574 46.5044C64.5408 46.6145 64.2076 46.7085 63.858 46.7862C63.5084 46.8575 63.1522 46.9093 62.7894 46.9417C62.4332 46.9806 62.0803 47.0001 61.7306 47.0001Z" fill="#1C1C1C"/>
<path d="M40.0332 46.7862C40.1981 46.0216 40.3564 45.283 40.5082 44.5702C40.6665 43.851 40.838 43.0605 41.0227 42.1987L42.0122 37.5918C42.2101 36.7106 42.3849 35.9039 42.5366 35.1717C42.6949 34.4395 42.8565 33.6911 43.0214 32.9265H44.664C45.2445 34.1058 45.8052 35.2494 46.3461 36.3574C46.8936 37.4654 47.4246 38.5507 47.9391 39.6134L50.0467 43.9288H50.1951L51.5804 37.5821C51.7717 36.7008 51.9465 35.8974 52.1048 35.1717C52.2632 34.446 52.4248 33.6976 52.5897 32.9265H54.2817C54.1168 33.6976 53.9552 34.446 53.7968 35.1717C53.6451 35.8974 53.4703 36.7008 53.2724 37.5821L52.2829 42.1987C52.0982 43.0605 51.9267 43.851 51.7684 44.5702C51.6167 45.283 51.4584 46.0216 51.2935 46.7862H49.7004C49.2123 45.7884 48.6977 44.7452 48.1568 43.6566C47.6225 42.5681 47.0354 41.3726 46.3955 40.0702L44.2484 35.7257H44.1L42.7147 42.1987C42.53 43.0735 42.3618 43.864 42.2101 44.5702C42.0583 45.27 41.9 46.0087 41.7351 46.7862H40.0332Z" fill="#1C1C1C"/>
<path d="M28.2832 46.7862C28.4481 46.0216 28.6064 45.283 28.7582 44.5702C28.9165 43.8575 29.088 43.067 29.2727 42.1987L30.2622 37.6015C30.4535 36.7203 30.6283 35.9168 30.7866 35.1911C30.9449 34.4654 31.1065 33.7105 31.2714 32.9265H40.0283L39.6919 34.433C39.0322 34.433 38.3264 34.433 37.5744 34.433C36.8224 34.433 35.9352 34.433 34.9127 34.433H31.7068L32.9733 33.1695C32.8084 33.9535 32.6468 34.7084 32.4885 35.4341C32.3368 36.1533 32.1686 36.9406 31.9838 37.7959L31.0834 41.946C30.9053 42.7884 30.7371 43.5691 30.5788 44.2884C30.4271 45.0011 30.2688 45.7398 30.1038 46.5044L29.4805 45.2797H32.7457C33.6099 45.2797 34.4246 45.2797 35.1898 45.2797C35.9616 45.2797 36.7037 45.2797 37.4161 45.2797L37.0797 46.7862H28.2832ZM31.0043 40.4978L31.3209 39.0302H34.0716C34.982 39.0302 35.767 39.0302 36.4266 39.0302C37.0863 39.0302 37.7195 39.0302 38.3264 39.0302L38.0197 40.4978C37.3666 40.4978 36.7103 40.4978 36.0506 40.4978C35.3976 40.4978 34.6225 40.4978 33.7253 40.4978H31.0043Z" fill="#1C1C1C"/>
<path d="M20.8941 46.9903C19.588 46.9903 18.4798 46.7733 17.5695 46.3392C16.6592 45.905 15.9435 45.3154 15.4223 44.5702C14.9078 43.8186 14.578 42.9633 14.4329 42.0043C14.2943 41.0454 14.3372 40.0475 14.5615 39.0108C14.8583 37.6242 15.363 36.4611 16.0754 35.5216C16.7944 34.582 17.6915 33.8725 18.7668 33.3931C19.8486 32.9136 21.0854 32.6738 22.4773 32.6738C22.9786 32.6738 23.4668 32.7062 23.9417 32.771C24.4167 32.8293 24.8718 32.9168 25.3072 33.0334C25.7492 33.1501 26.1615 33.2894 26.5441 33.4514C26.9267 33.6069 27.2697 33.7851 27.5731 33.9859L27.0685 35.6091C26.554 35.2592 26.0394 34.9838 25.5249 34.7829C25.0104 34.582 24.5024 34.4395 24.0011 34.3553C23.4998 34.271 23.0083 34.2289 22.5268 34.2289C21.7682 34.2289 21.0558 34.3261 20.3895 34.5205C19.7233 34.7084 19.1197 35.0065 18.5788 35.4147C18.0444 35.8164 17.586 36.3348 17.2034 36.9698C16.8274 37.6047 16.5437 38.3661 16.3524 39.2538C16.1809 40.0508 16.1381 40.8218 16.2238 41.567C16.3096 42.3121 16.5371 42.9828 16.9065 43.5789C17.276 44.1685 17.8004 44.6383 18.4798 44.9882C19.1593 45.3316 20.0036 45.5033 21.0129 45.5033C21.3889 45.5033 21.755 45.4871 22.1112 45.4547C22.4674 45.4158 22.8203 45.3575 23.1699 45.2797C23.5196 45.202 23.8692 45.0983 24.2188 44.9687C24.5684 44.8391 24.9213 44.6836 25.2775 44.5022L25.2083 46.1836C24.951 46.2873 24.6575 46.3877 24.3276 46.4849C24.0044 46.5821 23.6548 46.6696 23.2788 46.7474C22.9094 46.8251 22.5235 46.8834 22.1211 46.9223C21.7187 46.9677 21.3097 46.9903 20.8941 46.9903ZM23.5064 46.2128C23.6449 45.5324 23.7702 44.9331 23.8824 44.4147C23.9945 43.8899 24.1066 43.3715 24.2188 42.8596C24.3507 42.2441 24.4662 41.7063 24.5651 41.2462C24.6641 40.7797 24.7663 40.3067 24.8718 39.8272H26.5737C26.4682 40.3067 26.366 40.7797 26.267 41.2462C26.1681 41.7063 26.0526 42.2441 25.9207 42.8596C25.8086 43.3715 25.6964 43.8867 25.5843 44.405C25.4787 44.9234 25.3534 45.5163 25.2083 46.1836L23.5064 46.2128Z" fill="#1C1C1C"/>
<path d="M0 46.7862C0.441967 46.0346 0.900425 45.2473 1.37537 44.4244C1.85692 43.5951 2.31538 42.8078 2.75075 42.0626L5.51139 37.3002C5.97974 36.4838 6.41511 35.7321 6.8175 35.0453C7.21989 34.352 7.62887 33.6457 8.04445 32.9265H10.4291C10.5346 33.6198 10.6402 34.3131 10.7457 35.0064C10.8513 35.6998 10.9667 36.4708 11.092 37.3196L11.8045 42.0918C11.9166 42.8564 12.0353 43.6469 12.1607 44.4633C12.286 45.2797 12.4015 46.054 12.507 46.7862H10.7259C10.6204 45.9828 10.5083 45.1534 10.3895 44.2981C10.2708 43.4363 10.1553 42.6134 10.0432 41.8294L9.04383 34.5108H8.87562L4.75939 41.8002C4.30423 42.6037 3.83588 43.4331 3.35433 44.2884C2.87278 45.1372 2.40113 45.9698 1.93938 46.7862H0ZM3.37412 43.3067L3.80949 41.9266H10.9634L10.7952 43.3067H3.37412Z" fill="#1C1C1C"/>
<path fill-rule="evenodd" clip-rule="evenodd" d="M86.9748 35.8413L205 35.8413L203.635 42.1914L85.6163 42.1914L86.9748 35.8413Z" fill="#310E6A"/>
<path d="M86.9819 42.1914V35.8413L85.6163 42.1914H86.9819Z" fill="#310E6A"/>
</svg>
