<svg width="184" height="184" viewBox="0 0 184 184" fill="none" xmlns="http://www.w3.org/2000/svg">
<path d="M11.1895 142.614V110.198C11.1895 109.531 11.4545 108.891 11.9263 108.419C12.398 107.947 13.0379 107.682 13.7051 107.682C14.3723 107.682 15.0121 107.947 15.4839 108.419C15.9557 108.891 16.2207 109.531 16.2207 110.198V142.614C16.2207 143.281 15.9557 143.921 15.4839 144.392C15.0121 144.864 14.3723 145.129 13.7051 145.129C13.0379 145.129 12.398 144.864 11.9263 144.392C11.4545 143.921 11.1895 143.281 11.1895 142.614ZM13.7051 101.214C14.3723 101.214 15.0121 100.949 15.4839 100.477C15.9557 100.005 16.2207 99.3652 16.2207 98.698V79.6223C16.2207 78.9552 15.9557 78.3153 15.4839 77.8435C15.0121 77.3718 14.3723 77.1067 13.7051 77.1067C13.0379 77.1067 12.398 77.3718 11.9263 77.8435C11.4545 78.3153 11.1895 78.9552 11.1895 79.6223V98.698C11.1893 99.0284 11.2542 99.3556 11.3806 99.6609C11.5069 99.9662 11.6922 100.244 11.9258 100.477C12.1595 100.711 12.4369 100.896 12.7422 101.022C13.0475 101.149 13.3747 101.214 13.7051 101.214ZM32.2977 65.7361H91.2568C91.924 65.7361 92.5638 65.4711 93.0356 64.9993C93.5073 64.5275 93.7724 63.8877 93.7724 63.2205C93.7724 62.5533 93.5073 61.9134 93.0356 61.4417C92.5638 60.9699 91.924 60.7048 91.2568 60.7048H32.2977C31.6305 60.7048 30.9907 60.9699 30.5189 61.4417C30.0471 61.9134 29.7821 62.5533 29.7821 63.2205C29.7821 63.8877 30.0471 64.5275 30.5189 64.9993C30.9907 65.4711 31.6305 65.7361 32.2977 65.7361ZM32.2977 84.5544H91.2568C91.924 84.5544 92.5638 84.2894 93.0356 83.8176C93.5073 83.3458 93.7724 82.706 93.7724 82.0388C93.7724 81.3716 93.5073 80.7317 93.0356 80.26C92.5638 79.7882 91.924 79.5232 91.2568 79.5232H32.2977C31.6305 79.5232 30.9907 79.7882 30.5189 80.26C30.0471 80.7317 29.7821 81.3716 29.7821 82.0388C29.7821 82.706 30.0471 83.3458 30.5189 83.8176C30.9907 84.2894 31.6305 84.5544 32.2977 84.5544ZM32.2977 103.373H79.0998C79.767 103.373 80.4069 103.108 80.8786 102.636C81.3504 102.164 81.6154 101.524 81.6154 100.857C81.6154 100.19 81.3504 99.55 80.8786 99.0783C80.4069 98.6065 79.767 98.3415 79.0998 98.3415H32.2977C31.6305 98.3415 30.9907 98.6065 30.5189 99.0783C30.0471 99.55 29.7821 100.19 29.7821 100.857C29.7821 101.524 30.0471 102.164 30.5189 102.636C30.9907 103.108 31.6305 103.373 32.2977 103.373ZM32.2977 122.191H79.0998C79.767 122.191 80.4069 121.926 80.8786 121.454C81.3504 120.982 81.6154 120.343 81.6154 119.675C81.6154 119.008 81.3504 118.368 80.8786 117.897C80.4069 117.425 79.767 117.16 79.0998 117.16H32.2977C31.6305 117.16 30.9907 117.425 30.5189 117.897C30.0471 118.368 29.7821 119.008 29.7821 119.675C29.7821 120.343 30.0471 120.982 30.5189 121.454C30.9907 121.926 31.6305 122.191 32.2977 122.191ZM32.2977 141.009H79.0998C79.767 141.009 80.4069 140.744 80.8786 140.273C81.3504 139.801 81.6154 139.161 81.6154 138.494C81.6154 137.827 81.3504 137.187 80.8786 136.715C80.4069 136.243 79.767 135.978 79.0998 135.978H32.2977C31.6305 135.978 30.9907 136.243 30.5189 136.715C30.0471 137.187 29.7821 137.827 29.7821 138.494C29.7821 139.161 30.0471 139.801 30.5189 140.273C30.9907 140.744 31.6305 141.009 32.2977 141.009ZM32.2977 159.826H79.0998C79.767 159.826 80.4069 159.561 80.8786 159.089C81.3504 158.618 81.6154 157.978 81.6154 157.311C81.6154 156.643 81.3504 156.004 80.8786 155.532C80.4069 155.06 79.767 154.795 79.0998 154.795H32.2977C31.6305 154.795 30.9907 155.06 30.5189 155.532C30.0471 156.004 29.7821 156.643 29.7821 157.311C29.7821 157.978 30.0471 158.618 30.5189 159.089C30.9907 159.561 31.6305 159.826 32.2977 159.826ZM171.735 155.564C171.296 155.895 170.759 156.073 170.209 156.07C169.659 156.068 169.124 155.885 168.688 155.55L156.296 146.023L153.775 161.449C153.686 161.992 153.422 162.491 153.022 162.869C152.622 163.248 152.11 163.484 151.563 163.544C151.473 163.553 151.383 163.558 151.293 163.558C150.788 163.558 150.296 163.406 149.879 163.122C149.463 162.839 149.141 162.437 148.955 161.968L138.394 135.287V162.221C138.389 166.699 136.607 170.992 133.441 174.159C130.274 177.325 125.981 179.106 121.503 179.112H28.0801C23.6019 179.107 19.3086 177.326 16.1421 174.159C12.9755 170.993 11.1944 166.699 11.1895 162.221V154.114C11.1895 153.446 11.4545 152.807 11.9263 152.335C12.398 151.863 13.0379 151.598 13.7051 151.598C14.3723 151.598 15.0121 151.863 15.4839 152.335C15.9557 152.807 16.2207 153.446 16.2207 154.114V162.221C16.2241 165.365 17.4747 168.38 19.698 170.603C21.9213 172.826 24.9358 174.077 28.0801 174.08H121.503C124.647 174.077 127.662 172.826 129.885 170.603C132.109 168.38 133.359 165.365 133.363 162.221V135.361L122.836 161.968C122.65 162.437 122.328 162.838 121.911 163.122C121.494 163.405 121.002 163.557 120.498 163.558C120.408 163.558 120.317 163.553 120.227 163.544C119.679 163.484 119.167 163.247 118.767 162.869C118.367 162.49 118.103 161.991 118.014 161.448L115.489 146.023L103.097 155.548C102.661 155.884 102.127 156.068 101.576 156.071C101.025 156.074 100.489 155.896 100.049 155.564C99.6093 155.232 99.2907 154.766 99.142 154.235C98.9934 153.705 99.023 153.141 99.2263 152.629L112.492 119.089C112.417 119.011 112.338 118.945 112.266 118.856C111.459 117.929 110.873 116.832 110.551 115.647C110.229 114.461 110.18 113.218 110.407 112.011C110.524 111.375 110.443 110.719 110.174 110.131C109.906 109.543 109.463 109.052 108.906 108.725C107.848 108.103 106.942 107.251 106.258 106.232C105.573 105.213 105.127 104.053 104.952 102.838C104.777 101.623 104.877 100.384 105.246 99.2132C105.615 98.0423 106.243 96.9696 107.084 96.0745C107.525 95.6025 107.812 95.0065 107.904 94.3668C107.997 93.7271 107.891 93.0744 107.601 92.4966C107.045 91.4013 106.743 90.1947 106.718 88.9666C106.692 87.7386 106.944 86.5206 107.454 85.4032C107.964 84.2858 108.72 83.2977 109.664 82.5124C110.609 81.7271 111.718 81.1648 112.91 80.8672C113.536 80.7084 114.099 80.3615 114.522 79.8732C114.946 79.3849 115.209 78.7786 115.277 78.136C115.402 76.9139 115.8 75.7356 116.443 74.6886C117.086 73.6417 117.956 72.753 118.989 72.0885C120.022 71.424 121.192 71.0009 122.411 70.8506C123.63 70.7003 124.868 70.8266 126.031 71.2202C126.644 71.4248 127.305 71.4368 127.925 71.2546C128.545 71.0724 129.094 70.7047 129.499 70.201C130.495 68.9487 131.839 68.0189 133.363 67.5287V21.8636C133.359 18.7193 132.109 15.7048 129.885 13.4815C127.662 11.2582 124.647 10.0076 121.503 10.0042H53.4117V43.9292C53.4117 44.5964 53.1467 45.2363 52.6749 45.708C52.2031 46.1798 51.5633 46.4448 50.8961 46.4448H16.2207V68.1223C16.2207 68.7895 15.9557 69.4294 15.4839 69.9012C15.0121 70.3729 14.3723 70.638 13.7051 70.638C13.0379 70.638 12.398 70.3729 11.9263 69.9012C11.4545 69.4294 11.1895 68.7895 11.1895 68.1223V43.9292C11.19 43.7666 11.2059 43.6044 11.2369 43.4448C11.3034 43.1772 11.4039 42.9192 11.5359 42.6772C11.9053 42.036 11.3059 42.8209 23.6267 30.6898L49.1351 5.69459C49.1625 5.66727 49.197 5.65434 49.2257 5.62846C49.6818 5.21202 50.2756 4.9786 50.8932 4.97296H121.503C125.981 4.97829 130.274 6.75954 133.441 9.92599C136.607 13.0924 138.389 17.3856 138.394 21.8636V67.52C139.927 68.0086 141.282 68.9411 142.285 70.1995C142.688 70.7055 143.238 71.0749 143.858 71.2573C144.479 71.4397 145.141 71.4262 145.754 71.2187C146.917 70.8246 148.155 70.6978 149.374 70.8477C150.593 70.9976 151.763 71.4204 152.796 72.0847C153.829 72.7489 154.7 73.6375 155.342 74.6844C155.985 75.7313 156.383 76.9096 156.508 78.1317C156.575 78.7748 156.838 79.3817 157.261 79.8703C157.685 80.3589 158.248 80.7054 158.875 80.8629C160.067 81.1605 161.177 81.7228 162.121 82.5082C163.066 83.2936 163.822 84.2817 164.332 85.3993C164.842 86.5168 165.094 87.735 165.069 88.9632C165.043 90.1915 164.741 91.3982 164.185 92.4937C163.895 93.0704 163.788 93.7224 163.88 94.3615C163.973 95.0006 164.259 95.5961 164.7 96.0673C165.54 96.9623 166.168 98.0349 166.537 99.2056C166.906 100.376 167.007 101.615 166.832 102.83C166.658 104.045 166.212 105.205 165.527 106.224C164.843 107.243 163.939 108.095 162.88 108.717C162.323 109.045 161.88 109.536 161.611 110.124C161.342 110.711 161.261 111.368 161.378 112.003C161.607 113.211 161.559 114.456 161.238 115.643C160.918 116.829 160.332 117.928 159.525 118.856C159.453 118.939 159.373 119.011 159.298 119.09L172.563 152.629C172.765 153.141 172.794 153.705 172.644 154.235C172.495 154.765 172.175 155.233 171.735 155.564ZM48.3805 41.4265V13.4873L28.7672 32.6966L19.8648 41.4208L48.3805 41.4265ZM115.354 112.936C115.267 113.401 115.286 113.88 115.411 114.336C115.535 114.792 115.761 115.214 116.072 115.57C116.377 115.934 116.762 116.221 117.197 116.409C117.633 116.598 118.106 116.681 118.579 116.654C120.259 116.588 121.918 117.041 123.332 117.949C124.746 118.858 125.847 120.179 126.486 121.734C126.664 122.171 126.939 122.563 127.29 122.879C127.641 123.196 128.058 123.429 128.512 123.562C128.965 123.695 129.443 123.725 129.909 123.648C130.375 123.571 130.818 123.39 131.205 123.118C132.584 122.161 134.223 121.648 135.902 121.648C137.581 121.648 139.22 122.161 140.599 123.118C140.986 123.39 141.428 123.571 141.894 123.648C142.361 123.725 142.838 123.695 143.291 123.562C143.745 123.429 144.162 123.196 144.513 122.879C144.863 122.563 145.138 122.171 145.317 121.734C145.949 120.175 147.049 118.85 148.464 117.941C149.88 117.031 151.542 116.582 153.223 116.655C153.695 116.674 154.166 116.587 154.599 116.399C155.033 116.211 155.419 115.928 155.728 115.571C156.038 115.214 156.262 114.791 156.386 114.335C156.51 113.879 156.529 113.401 156.443 112.936C156.139 111.284 156.35 109.578 157.048 108.049C157.747 106.521 158.898 105.244 160.346 104.392C160.753 104.153 161.101 103.825 161.365 103.433C161.628 103.041 161.8 102.594 161.867 102.127C161.934 101.659 161.895 101.182 161.753 100.732C161.611 100.282 161.369 99.8688 161.046 99.5245C159.897 98.2988 159.152 96.7494 158.913 95.0863C158.674 93.4231 158.952 91.7267 159.709 90.2268C159.923 89.8051 160.039 89.3407 160.049 88.8679C160.058 88.3952 159.962 87.9264 159.765 87.4963C159.569 87.0662 159.278 86.6859 158.914 86.3836C158.551 86.0814 158.124 85.8649 157.665 85.7504C156.036 85.3409 154.571 84.4405 153.471 83.171C152.37 81.9016 151.687 80.3245 151.512 78.6535C151.465 78.1834 151.311 77.7303 151.064 77.3276C150.817 76.9249 150.483 76.583 150.085 76.3274C149.688 76.0717 149.238 75.9089 148.769 75.851C148.3 75.793 147.824 75.8414 147.377 75.9927C145.784 76.5296 144.065 76.5636 142.452 76.0902C140.839 75.6168 139.411 74.6588 138.361 73.3462C138.056 72.9922 137.679 72.7081 137.255 72.5134C136.831 72.3186 136.369 72.2178 135.903 72.2178C135.436 72.2178 134.975 72.3186 134.55 72.5134C134.126 72.7081 133.749 72.9922 133.445 73.3462C132.395 74.6585 130.967 75.6164 129.355 76.0901C127.743 76.5637 126.024 76.5302 124.431 75.9941C123.984 75.8406 123.507 75.7901 123.037 75.8464C122.567 75.9026 122.116 76.0641 121.717 76.3189C121.318 76.5736 120.982 76.9151 120.734 77.3178C120.485 77.7205 120.33 78.1741 120.281 78.6448C120.107 80.3161 119.424 81.8935 118.323 83.1632C117.223 84.433 115.758 85.3336 114.129 85.7432C113.67 85.8579 113.244 86.0744 112.88 86.3767C112.517 86.6789 112.227 87.0592 112.031 87.4891C111.834 87.9191 111.738 88.3877 111.748 88.8601C111.757 89.3326 111.874 89.7968 112.088 90.2182C112.845 91.718 113.123 93.4145 112.884 95.0776C112.645 96.7408 111.9 98.2902 110.751 99.5159C110.427 99.86 110.185 100.273 110.042 100.723C109.9 101.174 109.861 101.651 109.928 102.118C109.995 102.586 110.167 103.032 110.431 103.425C110.694 103.817 111.043 104.144 111.451 104.383C112.899 105.235 114.05 106.512 114.748 108.041C115.446 109.569 115.658 111.275 115.354 112.928V112.936ZM130.62 128.628C128.806 128.904 126.951 128.562 125.355 127.657C123.758 126.751 122.513 125.336 121.818 123.637C120.822 121.193 118.349 121.819 116.931 121.557L107.256 146.006L115.759 139.468C116.104 139.203 116.512 139.032 116.943 138.972C117.374 138.912 117.814 138.965 118.218 139.126C118.623 139.286 118.979 139.549 119.252 139.888C119.524 140.227 119.704 140.631 119.774 141.061L121.508 151.651L130.62 128.628ZM164.529 146.022L154.852 121.553C154.244 121.666 153.625 121.711 153.007 121.689C149.126 121.465 150.554 126.679 144.703 128.395C143.556 128.735 142.349 128.818 141.167 128.638L150.276 151.666L152.011 141.073C152.083 140.644 152.264 140.241 152.537 139.903C152.81 139.565 153.167 139.304 153.571 139.145C153.975 138.986 154.414 138.934 154.844 138.995C155.275 139.055 155.682 139.226 156.026 139.491L164.529 146.022ZM119.885 98.3846C119.885 95.2185 120.823 92.1235 122.582 89.491C124.341 86.8585 126.842 84.8067 129.767 83.5951C132.692 82.3835 135.91 82.0665 139.016 82.6842C142.121 83.3019 144.973 84.8265 147.212 87.0652C149.451 89.304 150.975 92.1563 151.593 95.2616C152.211 98.3668 151.894 101.586 150.682 104.511C149.47 107.436 147.419 109.936 144.786 111.695C142.154 113.454 139.059 114.393 135.893 114.393C131.649 114.388 127.58 112.7 124.579 109.698C121.578 106.697 119.89 102.629 119.885 98.3846ZM124.916 98.3846C124.916 100.556 125.56 102.678 126.766 104.483C127.972 106.288 129.686 107.695 131.692 108.526C133.698 109.357 135.905 109.574 138.034 109.15C140.163 108.727 142.119 107.681 143.654 106.146C145.189 104.611 146.235 102.655 146.658 100.526C147.082 98.3968 146.865 96.1897 146.034 94.184C145.203 92.1782 143.796 90.4639 141.991 89.2578C140.186 88.0516 138.064 87.4078 135.893 87.4078C132.982 87.4113 130.192 88.5688 128.135 90.6266C126.077 92.6844 124.919 95.4744 124.916 98.3846Z" fill="white"/>
</svg>
