<svg width="19" height="20" viewBox="0 0 19 20" fill="none" xmlns="http://www.w3.org/2000/svg">
<g clip-path="url(#clip0_295_9182)">
<path d="M9.49967 2.08337C5.12967 2.08337 1.58301 5.63004 1.58301 10C1.58301 14.37 5.12967 17.9167 9.49967 17.9167H13.458V16.3334H9.49967C6.06384 16.3334 3.16634 13.4359 3.16634 10C3.16634 6.56421 6.06384 3.66671 9.49967 3.66671C12.9355 3.66671 15.833 6.56421 15.833 10V11.1321C15.833 11.7575 15.2709 12.375 14.6455 12.375C14.0201 12.375 13.458 11.7575 13.458 11.1321V10C13.458 7.81504 11.6847 6.04171 9.49967 6.04171C7.31467 6.04171 5.54134 7.81504 5.54134 10C5.54134 12.185 7.31467 13.9584 9.49967 13.9584C10.5922 13.9584 11.5897 13.515 12.3022 12.7946C12.8168 13.4992 13.7034 13.9584 14.6455 13.9584C16.2051 13.9584 17.4163 12.6917 17.4163 11.1321V10C17.4163 5.63004 13.8697 2.08337 9.49967 2.08337ZM9.49967 12.375C8.18551 12.375 7.12467 11.3142 7.12467 10C7.12467 8.68587 8.18551 7.62504 9.49967 7.62504C10.8138 7.62504 11.8747 8.68587 11.8747 10C11.8747 11.3142 10.8138 12.375 9.49967 12.375Z" fill="#1C1C1C"/>
</g>
<defs>
<clipPath id="clip0_295_9182">
<rect width="19" height="19" fill="white" transform="translate(0 0.5)"/>
</clipPath>
</defs>
</svg>
