<svg width="30" height="30" viewBox="0 0 30 30" fill="none" xmlns="http://www.w3.org/2000/svg">
<path d="M23.9256 16.175C23.9756 15.8 24.0006 15.4125 24.0006 15C24.0006 14.6 23.9756 14.2 23.9131 13.825L26.4506 11.85C26.6756 11.675 26.7381 11.3375 26.6006 11.0875L24.2006 6.9375C24.0506 6.6625 23.7381 6.575 23.4631 6.6625L20.4756 7.8625C19.8506 7.3875 19.1881 6.9875 18.4506 6.6875L18.0006 3.5125C17.9506 3.2125 17.7006 3 17.4006 3H12.6006C12.3006 3 12.0631 3.2125 12.0131 3.5125L11.5631 6.6875C10.8256 6.9875 10.1506 7.4 9.53813 7.8625L6.55063 6.6625C6.27562 6.5625 5.96313 6.6625 5.81313 6.9375L3.42563 11.0875C3.27563 11.35 3.32563 11.675 3.57563 11.85L6.11313 13.825C6.05063 14.2 6.00063 14.6125 6.00063 15C6.00063 15.3875 6.02563 15.8 6.08813 16.175L3.55063 18.15C3.32563 18.325 3.26313 18.6625 3.40063 18.9125L5.80063 23.0625C5.95063 23.3375 6.26313 23.425 6.53813 23.3375L9.52563 22.1375C10.1506 22.6125 10.8131 23.0125 11.5506 23.3125L12.0006 26.4875C12.0631 26.7875 12.3006 27 12.6006 27H17.4006C17.7006 27 17.9506 26.7875 17.9881 26.4875L18.4381 23.3125C19.1756 23.0125 19.8506 22.6125 20.4631 22.1375L23.4506 23.3375C23.7256 23.4375 24.0381 23.3375 24.1881 23.0625L26.5881 18.9125C26.7381 18.6375 26.6756 18.325 26.4381 18.15L23.9256 16.175ZM15.0006 19.5C12.5256 19.5 10.5006 17.475 10.5006 15C10.5006 12.525 12.5256 10.5 15.0006 10.5C17.4756 10.5 19.5006 12.525 19.5006 15C19.5006 17.475 17.4756 19.5 15.0006 19.5Z" fill="#2069D8"/>
</svg>
