<svg width="25" height="26" viewBox="0 0 25 26" fill="none" xmlns="http://www.w3.org/2000/svg">
<path d="M22.6827 12.3754C22.129 11.4227 21.3501 10.6589 20.3763 10.0839C19.6486 9.6603 18.8941 9.39143 18.0438 9.27595V6.24882C18.8941 5.88778 19.4218 5.08865 19.4218 4.15636C19.4218 2.88565 18.4028 1.85592 17.1331 1.85592C15.8623 1.85592 14.8255 2.88565 14.8255 4.15636C14.8255 5.08865 15.3227 5.88778 16.1731 6.24882V9.27731C15.4928 9.37561 14.7874 9.58768 14.1432 9.91352C12.8274 8.91423 8.51289 5.63591 5.98898 3.72117C6.04884 3.50536 6.09493 3.28292 6.09493 3.04823C6.09493 1.64079 4.95516 0.5 3.54721 0.5C2.13925 0.5 1 1.64079 1 3.04823C1 4.4555 2.14045 5.59663 3.5484 5.59663C4.02866 5.59663 4.47286 5.45616 4.85619 5.22521L5.38883 5.62928L12.7077 10.9026C12.3208 11.2579 11.9604 11.6619 11.6722 12.1153C11.088 13.0396 10.731 14.0566 10.731 15.1659V15.3974C10.731 16.1761 10.879 16.9113 11.131 17.6019C11.3529 18.205 11.6774 18.7532 12.0793 19.249L9.65027 21.6839C9.4348 21.6045 9.20845 21.561 8.97223 21.561C8.44639 21.561 7.95321 21.7664 7.58128 22.1377C7.20902 22.5099 7.00511 23.0043 7.00511 23.5305C7.00528 24.0565 7.2102 24.5509 7.5823 24.9228C7.95423 25.2949 8.44861 25.5 8.97478 25.5C9.50096 25.5 9.99551 25.2949 10.3678 24.9228C10.7392 24.5509 10.9443 24.0563 10.9443 23.5305C10.9443 23.3269 10.9128 23.1283 10.8536 22.9395L13.3643 20.4285C13.7085 20.6663 14.0803 20.8665 14.4799 21.0391C15.2682 21.3799 16.1382 21.5875 17.0904 21.5875H17.2649C18.3176 21.5875 19.3106 21.3403 20.244 20.8345C21.2277 20.3 21.9976 19.569 22.5792 18.6359C23.1639 17.7002 23.4858 16.6664 23.4858 15.529V15.4722C23.4858 14.3534 23.2268 13.3211 22.6827 12.3754ZM19.6151 17.6427C18.9337 18.4 18.1504 18.8665 17.2649 18.8665H17.1189C16.6132 18.8665 16.1185 18.7267 15.6341 18.4725C15.0882 18.1925 14.6733 17.7932 14.3336 17.2876C13.9826 16.7914 13.7922 16.2496 13.7922 15.6751V15.5006C13.7922 14.9358 13.9005 14.4003 14.1736 13.8945C14.4656 13.3417 14.86 12.9117 15.3845 12.5699C15.8994 12.2305 16.4494 12.064 17.062 12.064H17.1189C17.6744 12.064 18.2002 12.1735 18.6965 12.4274C19.2021 12.6981 19.6151 13.068 19.9354 13.5546C20.2464 14.0413 20.4314 14.5663 20.491 15.1382C20.5003 15.2571 20.5051 15.3788 20.5051 15.4952C20.5051 16.2713 20.2085 16.9902 19.6151 17.6427Z" fill="#F8761F"/>
</svg>
