<svg width="35" height="39" viewBox="0 0 35 39" fill="none" xmlns="http://www.w3.org/2000/svg">
<path d="M8.3112 29.25L11.6654 22.75C10.0612 22.75 8.68793 22.1135 7.54557 20.8406C6.40321 19.5677 5.83203 18.0375 5.83203 16.25C5.83203 14.4625 6.40321 12.9323 7.54557 11.6594C8.68793 10.3865 10.0612 9.75 11.6654 9.75C13.2695 9.75 14.6428 10.3865 15.7852 11.6594C16.9275 12.9323 17.4987 14.4625 17.4987 16.25C17.4987 16.8729 17.4319 17.4484 17.2982 17.9766C17.1645 18.5047 16.964 19.0125 16.6966 19.5L11.6654 29.25H8.3112ZM21.4362 29.25L24.7904 22.75C23.1862 22.75 21.8129 22.1135 20.6706 20.8406C19.5282 19.5677 18.957 18.0375 18.957 16.25C18.957 14.4625 19.5282 12.9323 20.6706 11.6594C21.8129 10.3865 23.1862 9.75 24.7904 9.75C26.3945 9.75 27.7678 10.3865 28.9102 11.6594C30.0525 12.9323 30.6237 14.4625 30.6237 16.25C30.6237 16.8729 30.5569 17.4484 30.4232 17.9766C30.2895 18.5047 30.089 19.0125 29.8216 19.5L24.7904 29.25H21.4362ZM11.6654 18.6875C12.273 18.6875 12.7895 18.4505 13.2148 17.9766C13.6402 17.5026 13.8529 16.9271 13.8529 16.25C13.8529 15.5729 13.6402 14.9974 13.2148 14.5234C12.7895 14.0495 12.273 13.8125 11.6654 13.8125C11.0577 13.8125 10.5412 14.0495 10.1159 14.5234C9.69054 14.9974 9.47786 15.5729 9.47786 16.25C9.47786 16.9271 9.69054 17.5026 10.1159 17.9766C10.5412 18.4505 11.0577 18.6875 11.6654 18.6875ZM24.7904 18.6875C25.398 18.6875 25.9145 18.4505 26.3398 17.9766C26.7652 17.5026 26.9779 16.9271 26.9779 16.25C26.9779 15.5729 26.7652 14.9974 26.3398 14.5234C25.9145 14.0495 25.398 13.8125 24.7904 13.8125C24.1827 13.8125 23.6662 14.0495 23.2409 14.5234C22.8155 14.9974 22.6029 15.5729 22.6029 16.25C22.6029 16.9271 22.8155 17.5026 23.2409 17.9766C23.6662 18.4505 24.1827 18.6875 24.7904 18.6875Z" fill="#F2D802"/>
<path d="M11.6654 18.6875C12.273 18.6875 12.7895 18.4505 13.2148 17.9766C13.6402 17.5026 13.8529 16.9271 13.8529 16.25C13.8529 15.5729 13.6402 14.9974 13.2148 14.5234C12.7895 14.0495 12.273 13.8125 11.6654 13.8125C11.0577 13.8125 10.5412 14.0495 10.1159 14.5234C9.69054 14.9974 9.47786 15.5729 9.47786 16.25C9.47786 16.9271 9.69054 17.5026 10.1159 17.9766C10.5412 18.4505 11.0577 18.6875 11.6654 18.6875Z" fill="#F2D802"/>
<path d="M24.7904 18.6875C25.398 18.6875 25.9145 18.4505 26.3398 17.9766C26.7652 17.5026 26.9779 16.9271 26.9779 16.25C26.9779 15.5729 26.7652 14.9974 26.3398 14.5234C25.9145 14.0495 25.398 13.8125 24.7904 13.8125C24.1827 13.8125 23.6662 14.0495 23.2409 14.5234C22.8155 14.9974 22.6029 15.5729 22.6029 16.25C22.6029 16.9271 22.8155 17.5026 23.2409 17.9766C23.6662 18.4505 24.1827 18.6875 24.7904 18.6875Z" fill="#F2D802"/>
</svg>
