<svg width="184" height="184" viewBox="0 0 184 184" fill="none" xmlns="http://www.w3.org/2000/svg">
<path d="M11.1875 142.614V110.198C11.1875 109.531 11.4525 108.891 11.9243 108.419C12.3961 107.947 13.0359 107.682 13.7031 107.682C14.3703 107.682 15.0102 107.947 15.4819 108.419C15.9537 108.891 16.2188 109.531 16.2188 110.198V142.614C16.2188 143.281 15.9537 143.921 15.4819 144.392C15.0102 144.864 14.3703 145.129 13.7031 145.129C13.0359 145.129 12.3961 144.864 11.9243 144.392C11.4525 143.921 11.1875 143.281 11.1875 142.614ZM13.7031 101.214C14.3703 101.214 15.0102 100.949 15.4819 100.477C15.9537 100.005 16.2188 99.3651 16.2188 98.6979V79.6223C16.2188 78.9551 15.9537 78.3152 15.4819 77.8435C15.0102 77.3717 14.3703 77.1067 13.7031 77.1067C13.0359 77.1067 12.3961 77.3717 11.9243 77.8435C11.4525 78.3152 11.1875 78.9551 11.1875 79.6223V98.6979C11.1873 99.0283 11.2523 99.3555 11.3786 99.6608C11.505 99.9661 11.6903 100.244 11.9239 100.477C12.1575 100.711 12.4349 100.896 12.7402 101.022C13.0455 101.149 13.3727 101.214 13.7031 101.214ZM32.2957 65.736H91.2548C91.922 65.736 92.5619 65.471 93.0336 64.9992C93.5054 64.5274 93.7704 63.8876 93.7704 63.2204C93.7704 62.5532 93.5054 61.9134 93.0336 61.4416C92.5619 60.9698 91.922 60.7048 91.2548 60.7048H32.2957C31.6286 60.7048 30.9887 60.9698 30.5169 61.4416C30.0452 61.9134 29.7801 62.5532 29.7801 63.2204C29.7801 63.8876 30.0452 64.5274 30.5169 64.9992C30.9887 65.471 31.6286 65.736 32.2957 65.736ZM32.2957 84.5543H91.2548C91.922 84.5543 92.5619 84.2893 93.0336 83.8175C93.5054 83.3458 93.7704 82.7059 93.7704 82.0387C93.7704 81.3715 93.5054 80.7317 93.0336 80.2599C92.5619 79.7881 91.922 79.5231 91.2548 79.5231H32.2957C31.6286 79.5231 30.9887 79.7881 30.5169 80.2599C30.0452 80.7317 29.7801 81.3715 29.7801 82.0387C29.7801 82.7059 30.0452 83.3458 30.5169 83.8175C30.9887 84.2893 31.6286 84.5543 32.2957 84.5543ZM32.2957 103.373H79.0979C79.7651 103.373 80.4049 103.108 80.8767 102.636C81.3485 102.164 81.6135 101.524 81.6135 100.857C81.6135 100.19 81.3485 99.55 80.8767 99.0782C80.4049 98.6064 79.7651 98.3414 79.0979 98.3414H32.2957C31.6286 98.3414 30.9887 98.6064 30.5169 99.0782C30.0452 99.55 29.7801 100.19 29.7801 100.857C29.7801 101.524 30.0452 102.164 30.5169 102.636C30.9887 103.108 31.6286 103.373 32.2957 103.373ZM32.2957 122.191H79.0979C79.7651 122.191 80.4049 121.926 80.8767 121.454C81.3485 120.982 81.6135 120.343 81.6135 119.675C81.6135 119.008 81.3485 118.368 80.8767 117.897C80.4049 117.425 79.7651 117.16 79.0979 117.16H32.2957C31.6286 117.16 30.9887 117.425 30.5169 117.897C30.0452 118.368 29.7801 119.008 29.7801 119.675C29.7801 120.343 30.0452 120.982 30.5169 121.454C30.9887 121.926 31.6286 122.191 32.2957 122.191ZM32.2957 141.009H79.0979C79.7651 141.009 80.4049 140.744 80.8767 140.272C81.3485 139.801 81.6135 139.161 81.6135 138.494C81.6135 137.826 81.3485 137.187 80.8767 136.715C80.4049 136.243 79.7651 135.978 79.0979 135.978H32.2957C31.6286 135.978 30.9887 136.243 30.5169 136.715C30.0452 137.187 29.7801 137.826 29.7801 138.494C29.7801 139.161 30.0452 139.801 30.5169 140.272C30.9887 140.744 31.6286 141.009 32.2957 141.009ZM32.2957 159.826H79.0979C79.7651 159.826 80.4049 159.561 80.8767 159.089C81.3485 158.618 81.6135 157.978 81.6135 157.311C81.6135 156.643 81.3485 156.003 80.8767 155.532C80.4049 155.06 79.7651 154.795 79.0979 154.795H32.2957C31.6286 154.795 30.9887 155.06 30.5169 155.532C30.0452 156.003 29.7801 156.643 29.7801 157.311C29.7801 157.978 30.0452 158.618 30.5169 159.089C30.9887 159.561 31.6286 159.826 32.2957 159.826ZM171.733 155.564C171.294 155.895 170.757 156.073 170.207 156.07C169.657 156.068 169.122 155.885 168.686 155.55L156.294 146.023L153.773 161.449C153.684 161.992 153.42 162.491 153.02 162.869C152.62 163.248 152.108 163.484 151.561 163.544C151.471 163.553 151.381 163.558 151.291 163.558C150.787 163.558 150.294 163.406 149.877 163.122C149.461 162.839 149.139 162.437 148.953 161.968L138.392 135.287V162.221C138.387 166.699 136.605 170.992 133.439 174.159C130.272 177.325 125.979 179.106 121.501 179.112H28.0781C23.6 179.107 19.3066 177.326 16.1401 174.159C12.9736 170.993 11.1924 166.699 11.1875 162.221V154.114C11.1875 153.446 11.4525 152.807 11.9243 152.335C12.3961 151.863 13.0359 151.598 13.7031 151.598C14.3703 151.598 15.0102 151.863 15.4819 152.335C15.9537 152.807 16.2188 153.446 16.2188 154.114V162.221C16.2222 165.365 17.4727 168.38 19.6961 170.603C21.9194 172.826 24.9339 174.077 28.0781 174.08H121.501C124.646 174.077 127.66 172.826 129.883 170.603C132.107 168.38 133.357 165.365 133.361 162.221V135.361L122.834 161.968C122.648 162.436 122.326 162.838 121.909 163.122C121.493 163.405 121 163.557 120.496 163.558C120.406 163.558 120.315 163.553 120.225 163.544C119.677 163.484 119.165 163.247 118.765 162.869C118.366 162.49 118.101 161.991 118.012 161.448L115.487 146.023L103.096 155.548C102.659 155.884 102.125 156.068 101.574 156.071C101.023 156.074 100.487 155.896 100.047 155.564C99.6074 155.232 99.2887 154.765 99.1401 154.235C98.9914 153.705 99.021 153.14 99.2243 152.629L112.49 119.089C112.415 119.011 112.336 118.945 112.264 118.856C111.457 117.929 110.871 116.832 110.549 115.647C110.227 114.461 110.178 113.218 110.405 112.011C110.522 111.375 110.441 110.719 110.173 110.131C109.904 109.543 109.461 109.052 108.904 108.724C107.846 108.103 106.94 107.251 106.256 106.232C105.571 105.213 105.125 104.053 104.95 102.838C104.775 101.623 104.875 100.384 105.244 99.2131C105.614 98.0423 106.241 96.9695 107.082 96.0745C107.523 95.6024 107.81 95.0064 107.902 94.3667C107.995 93.727 107.889 93.0743 107.599 92.4965C107.043 91.4012 106.741 90.1947 106.716 88.9666C106.691 87.7385 106.942 86.5205 107.452 85.4031C107.962 84.2857 108.718 83.2976 109.662 82.5123C110.607 81.727 111.716 81.1647 112.908 80.8672C113.534 80.7083 114.097 80.3614 114.52 79.8731C114.944 79.3848 115.207 78.7785 115.275 78.1359C115.4 76.9138 115.799 75.7355 116.441 74.6886C117.084 73.6416 117.954 72.7529 118.987 72.0884C120.02 71.424 121.19 71.0009 122.409 70.8505C123.628 70.7002 124.866 70.8265 126.029 71.2201C126.642 71.4247 127.303 71.4368 127.923 71.2546C128.543 71.0723 129.092 70.7046 129.497 70.2009C130.493 68.9486 131.837 68.0189 133.361 67.5286V21.8635C133.357 18.7193 132.107 15.7048 129.883 13.4815C127.66 11.2581 124.646 10.0076 121.501 10.0042H53.4097V43.9292C53.4097 44.5963 53.1447 45.2362 52.6729 45.708C52.2012 46.1797 51.5613 46.4448 50.8941 46.4448H16.2188V68.1223C16.2188 68.7895 15.9537 69.4293 15.4819 69.9011C15.0102 70.3729 14.3703 70.6379 13.7031 70.6379C13.0359 70.6379 12.3961 70.3729 11.9243 69.9011C11.4525 69.4293 11.1875 68.7895 11.1875 68.1223V43.9292C11.1881 43.7665 11.2039 43.6043 11.2349 43.4447C11.3014 43.1771 11.4019 42.9192 11.5339 42.6771C11.9034 42.036 11.3039 42.8208 23.6248 30.6898L49.1332 5.69453C49.1605 5.66721 49.195 5.65428 49.2238 5.6284C49.6799 5.21196 50.2737 4.97854 50.8913 4.9729H121.501C125.979 4.97823 130.272 6.75948 133.439 9.92593C136.605 13.0924 138.387 17.3855 138.392 21.8635V67.52C139.926 68.0085 141.28 68.941 142.283 70.1995C142.686 70.7055 143.236 71.0749 143.856 71.2572C144.477 71.4396 145.139 71.4262 145.752 71.2187C146.915 70.8245 148.153 70.6977 149.372 70.8476C150.591 70.9976 151.761 71.4204 152.794 72.0846C153.827 72.7488 154.698 73.6374 155.34 74.6843C155.983 75.7312 156.381 76.9095 156.506 78.1316C156.573 78.7747 156.836 79.3817 157.259 79.8702C157.683 80.3588 158.246 80.7053 158.873 80.8628C160.065 81.1604 161.175 81.7228 162.119 82.5081C163.064 83.2935 163.82 84.2817 164.33 85.3992C164.84 86.5168 165.092 87.7349 165.067 88.9632C165.041 90.1914 164.739 91.3981 164.184 92.4937C163.893 93.0703 163.786 93.7223 163.879 94.3614C163.971 95.0006 164.257 95.596 164.698 96.0673C165.538 96.9623 166.166 98.0349 166.535 99.2055C166.904 100.376 167.005 101.615 166.831 102.83C166.656 104.045 166.21 105.205 165.526 106.224C164.841 107.243 163.937 108.095 162.878 108.717C162.321 109.045 161.878 109.536 161.609 110.124C161.34 110.711 161.259 111.368 161.376 112.003C161.605 113.211 161.557 114.456 161.236 115.642C160.916 116.829 160.33 117.928 159.523 118.856C159.451 118.939 159.371 119.011 159.296 119.09L172.561 152.629C172.763 153.141 172.792 153.705 172.642 154.235C172.493 154.765 172.173 155.233 171.733 155.564ZM48.3785 41.4265V13.4872L28.7653 32.6965L19.8628 41.4207L48.3785 41.4265ZM115.352 112.936C115.265 113.401 115.284 113.879 115.409 114.336C115.533 114.792 115.759 115.214 116.07 115.57C116.375 115.934 116.76 116.221 117.195 116.409C117.631 116.598 118.104 116.681 118.577 116.654C120.257 116.588 121.916 117.041 123.33 117.949C124.744 118.858 125.845 120.179 126.484 121.734C126.662 122.171 126.937 122.563 127.288 122.879C127.639 123.196 128.057 123.429 128.51 123.562C128.963 123.695 129.441 123.725 129.907 123.648C130.373 123.571 130.816 123.39 131.203 123.118C132.582 122.161 134.221 121.648 135.9 121.648C137.579 121.648 139.218 122.161 140.597 123.118C140.984 123.39 141.426 123.571 141.892 123.648C142.359 123.724 142.836 123.695 143.289 123.562C143.743 123.429 144.16 123.196 144.511 122.879C144.862 122.563 145.136 122.171 145.315 121.734C145.947 120.175 147.047 118.85 148.462 117.94C149.878 117.031 151.54 116.582 153.221 116.655C153.693 116.674 154.164 116.586 154.597 116.399C155.031 116.211 155.417 115.928 155.726 115.571C156.036 115.214 156.26 114.791 156.384 114.335C156.508 113.879 156.527 113.401 156.441 112.936C156.137 111.284 156.348 109.578 157.047 108.049C157.745 106.521 158.896 105.244 160.344 104.392C160.751 104.153 161.099 103.825 161.363 103.433C161.626 103.04 161.798 102.594 161.865 102.127C161.932 101.659 161.893 101.182 161.751 100.732C161.609 100.281 161.367 99.8688 161.044 99.5245C159.895 98.2987 159.15 96.7493 158.911 95.0862C158.672 93.423 158.95 91.7266 159.707 90.2267C159.921 89.805 160.037 89.3406 160.047 88.8679C160.057 88.3951 159.96 87.9263 159.763 87.4962C159.567 87.0661 159.276 86.6858 158.912 86.3836C158.549 86.0813 158.122 85.8649 157.663 85.7503C156.034 85.3409 154.569 84.4404 153.469 83.1709C152.368 81.9015 151.685 80.3244 151.511 78.6534C151.463 78.1834 151.309 77.7302 151.062 77.3275C150.815 76.9248 150.481 76.5829 150.083 76.3273C149.686 76.0717 149.236 75.9088 148.767 75.8509C148.298 75.7929 147.822 75.8414 147.375 75.9926C145.782 76.5295 144.063 76.5636 142.45 76.0902C140.837 75.6168 139.409 74.6588 138.359 73.3462C138.055 72.9922 137.677 72.7081 137.253 72.5133C136.829 72.3186 136.368 72.2177 135.901 72.2177C135.434 72.2177 134.973 72.3186 134.548 72.5133C134.124 72.7081 133.747 72.9922 133.443 73.3462C132.393 74.6585 130.965 75.6163 129.353 76.09C127.741 76.5636 126.022 76.5301 124.429 75.994C123.982 75.8406 123.505 75.7901 123.035 75.8463C122.565 75.9025 122.114 76.0641 121.715 76.3188C121.316 76.5736 120.98 76.915 120.732 77.3177C120.483 77.7204 120.328 78.1741 120.279 78.6448C120.105 80.3161 119.422 81.8934 118.321 83.1632C117.221 84.4329 115.756 85.3336 114.127 85.7432C113.668 85.8578 113.242 86.0744 112.878 86.3766C112.515 86.6789 112.225 87.0591 112.029 87.4891C111.832 87.919 111.736 88.3876 111.746 88.8601C111.756 89.3326 111.872 89.7967 112.086 90.2181C112.843 91.718 113.121 93.4144 112.882 95.0776C112.643 96.7407 111.898 98.2901 110.749 99.5158C110.425 99.8599 110.183 100.273 110.04 100.723C109.898 101.174 109.859 101.65 109.926 102.118C109.993 102.586 110.165 103.032 110.429 103.425C110.692 103.817 111.041 104.144 111.449 104.383C112.897 105.235 114.048 106.512 114.746 108.041C115.444 109.569 115.656 111.275 115.352 112.928V112.936ZM130.618 128.628C128.804 128.904 126.949 128.562 125.353 127.657C123.756 126.751 122.511 125.336 121.816 123.637C120.82 121.193 118.347 121.819 116.929 121.557L107.254 146.006L115.757 139.468C116.102 139.203 116.51 139.032 116.941 138.972C117.373 138.912 117.812 138.965 118.216 139.125C118.621 139.286 118.977 139.549 119.25 139.888C119.522 140.227 119.702 140.631 119.772 141.061L121.506 151.651L130.618 128.628ZM164.527 146.022L154.85 121.553C154.242 121.666 153.623 121.711 153.006 121.689C149.124 121.465 150.552 126.679 144.701 128.395C143.554 128.735 142.347 128.818 141.165 128.638L150.274 151.665L152.009 141.073C152.081 140.644 152.262 140.241 152.535 139.903C152.808 139.565 153.165 139.304 153.569 139.145C153.973 138.986 154.412 138.934 154.842 138.995C155.273 139.055 155.68 139.226 156.024 139.491L164.527 146.022ZM119.883 98.3845C119.883 95.2185 120.821 92.1235 122.58 89.491C124.339 86.8585 126.84 84.8067 129.765 83.5951C132.69 82.3835 135.908 82.0664 139.014 82.6841C142.119 83.3018 144.971 84.8264 147.21 87.0652C149.449 89.3039 150.973 92.1563 151.591 95.2615C152.209 98.3668 151.892 101.585 150.68 104.511C149.468 107.436 147.417 109.936 144.784 111.695C142.152 113.454 139.057 114.393 135.891 114.393C131.647 114.388 127.578 112.699 124.577 109.698C121.576 106.697 119.888 102.629 119.883 98.3845ZM124.914 98.3845C124.914 100.556 125.558 102.678 126.764 104.483C127.97 106.288 129.684 107.695 131.69 108.526C133.696 109.357 135.903 109.574 138.032 109.15C140.161 108.727 142.117 107.681 143.652 106.146C145.187 104.611 146.233 102.655 146.656 100.526C147.08 98.3967 146.863 96.1897 146.032 94.1839C145.201 92.1782 143.794 90.4638 141.989 89.2577C140.184 88.0516 138.062 87.4078 135.891 87.4078C132.98 87.4112 130.19 88.5688 128.133 90.6266C126.075 92.6844 124.917 95.4744 124.914 98.3845Z" fill="#310E6A"/>
</svg>
