<svg width="19" height="20" viewBox="0 0 19 20" fill="none" xmlns="http://www.w3.org/2000/svg">
<g clip-path="url(#clip0_295_9371)">
<path d="M9.50065 2.08325C5.13065 2.08325 1.58398 5.62992 1.58398 9.99992C1.58398 14.3699 5.13065 17.9166 9.50065 17.9166H13.459V16.3333H9.50065C6.06482 16.3333 3.16732 13.4358 3.16732 9.99992C3.16732 6.56409 6.06482 3.66659 9.50065 3.66659C12.9365 3.66659 15.834 6.56409 15.834 9.99992V11.132C15.834 11.7574 15.2719 12.3749 14.6465 12.3749C14.0211 12.3749 13.459 11.7574 13.459 11.132V9.99992C13.459 7.81492 11.6857 6.04158 9.50065 6.04158C7.31565 6.04158 5.54232 7.81492 5.54232 9.99992C5.54232 12.1849 7.31565 13.9583 9.50065 13.9583C10.5932 13.9583 11.5907 13.5149 12.3032 12.7945C12.8177 13.4991 13.7044 13.9583 14.6465 13.9583C16.2061 13.9583 17.4173 12.6916 17.4173 11.132V9.99992C17.4173 5.62992 13.8707 2.08325 9.50065 2.08325ZM9.50065 12.3749C8.18648 12.3749 7.12565 11.3141 7.12565 9.99992C7.12565 8.68575 8.18648 7.62492 9.50065 7.62492C10.8148 7.62492 11.8757 8.68575 11.8757 9.99992C11.8757 11.3141 10.8148 12.3749 9.50065 12.3749Z" fill="#7B9AE5"/>
</g>
<defs>
<clipPath id="clip0_295_9371">
<rect width="19" height="19" fill="white" transform="translate(0 0.5)"/>
</clipPath>
</defs>
</svg>
