<svg width="24" height="24" viewBox="0 0 24 24" fill="none" xmlns="http://www.w3.org/2000/svg">
<path d="M16.2373 7.7625C18.581 10.1062 18.581 13.9031 16.2373 16.2469C15.0654 17.4187 15.0654 19.3219 16.2373 20.4844C17.4092 21.6562 19.3123 21.6562 20.4842 20.4844C25.1717 15.7969 25.1717 8.20312 20.4842 3.51562L16.2373 7.7625Z" fill="#EA4335"/>
<path d="M20.475 3.51562C15.7875 -1.17187 8.20311 -1.17187 3.51562 3.51562C-1.17187 8.20312 -1.17187 15.7969 3.51562 20.4844L7.76249 16.2469C5.41874 13.9031 5.41874 10.1062 7.76249 7.76249C10.1062 5.41875 13.9031 5.41875 16.2468 7.76249C17.4187 8.93437 19.3218 8.93437 20.4937 7.76249C21.6468 6.59062 21.6468 4.6875 20.475 3.51562Z" fill="url(#paint0_linear_295_9434)"/>
<path d="M20.4752 20.4844L16.2283 16.2469C13.8846 18.5906 10.0877 18.5906 7.74394 16.2469L3.49707 20.4844C8.20331 25.1719 15.7877 25.1719 20.4752 20.4844Z" fill="#FBBC04"/>
<path d="M16.2373 16.2469C17.4092 15.075 19.3029 15.075 20.4748 16.2469C21.6467 17.4187 21.6467 19.3219 20.4748 20.4937C19.3029 21.6656 17.4092 21.6656 16.2373 20.4937C15.0654 19.3219 15.0654 17.4187 16.2373 16.2469Z" fill="#EA4335"/>
<path d="M3.51562 16.2469C4.6875 15.075 6.58124 15.075 7.75312 16.2469C8.92499 17.4187 8.92499 19.3219 7.75312 20.4937C6.58124 21.6656 4.6875 21.6656 3.51562 20.4937C2.34375 19.3219 2.34375 17.4187 3.51562 16.2469Z" fill="#34A853"/>
<defs>
<linearGradient id="paint0_linear_295_9434" x1="0" y1="1024.22" x2="2135.61" y2="1024.22" gradientUnits="userSpaceOnUse">
<stop stop-color="#246FDB"/>
<stop offset="0.0552" stop-color="#2973DF"/>
<stop offset="0.2781" stop-color="#377DEB"/>
<stop offset="0.5491" stop-color="#3F83F2"/>
<stop offset="1" stop-color="#4285F4"/>
</linearGradient>
</defs>
</svg>
