<svg width="25" height="26" viewBox="0 0 25 26" fill="none" xmlns="http://www.w3.org/2000/svg">
<g clip-path="url(#clip0_295_9446)">
<path d="M21.3012 21.8015H17.597V16.0004C17.597 14.6171 17.5723 12.8363 15.6704 12.8363C13.7411 12.8363 13.4459 14.3435 13.4459 15.8997V21.8011H9.74171V9.87173H13.2978V11.502H13.3475C14.0726 10.2622 15.4209 9.52172 16.8561 9.575C20.6105 9.575 21.3027 12.0445 21.3027 15.2572L21.3012 21.8015ZM5.56212 8.24107C4.37492 8.24128 3.41234 7.27902 3.41213 6.0918C3.41191 4.90458 4.37415 3.94198 5.56134 3.94177C6.74854 3.94155 7.71112 4.90381 7.71133 6.09103C7.71144 6.66115 7.48506 7.20797 7.082 7.61118C6.67895 8.01439 6.13223 8.24097 5.56212 8.24107ZM7.41422 21.8015H3.70615V9.87173H7.41422V21.8015ZM23.1479 0.501784H1.84478C0.837949 0.490422 0.0122878 1.29693 0 2.30377V23.6957C0.0118671 24.703 0.837461 25.5103 1.84478 25.4998H23.1479C24.1572 25.5123 24.986 24.705 25 23.6957V2.30223C24.9856 1.2934 24.1567 0.486935 23.1479 0.500078" fill="#0A66C2"/>
</g>
<defs>
<clipPath id="clip0_295_9446">
<rect width="25" height="25" fill="white" transform="translate(0 0.5)"/>
</clipPath>
</defs>
</svg>
