<svg width="106" height="106" viewBox="0 0 106 106" fill="none" xmlns="http://www.w3.org/2000/svg">
<path d="M65.3374 2.7348C66.9278 1.64321 69.1105 2.30865 69.8361 4.10628L73.3391 12.7856C73.8651 14.0888 75.2062 14.8597 76.5851 14.6516L85.7691 13.2654C87.6713 12.9783 89.3517 14.5336 89.2326 16.4709L88.6574 25.8247C88.571 27.2291 89.4478 28.5109 90.7797 28.9272L99.6501 31.6998C101.487 32.2741 102.333 34.4113 101.393 36.1046L96.8529 44.2801C96.1713 45.5076 96.4102 47.0465 97.4312 48.0047L104.231 54.387C105.64 55.7089 105.482 58.0046 103.907 59.1185L96.3024 64.4965C95.1606 65.3041 94.7143 66.7951 95.2222 68.1056L98.6049 76.8334C99.3055 78.6411 98.177 80.6406 96.279 80.9545L87.1151 82.4699C85.7391 82.6974 84.696 83.8454 84.5902 85.2485L83.8857 94.5932C83.7397 96.5287 81.8633 97.8361 80.0184 97.2877L71.1104 94.6403C69.7729 94.2428 68.3396 94.8203 67.6411 96.0382L62.9888 104.149C62.0252 105.829 59.7726 106.185 58.3461 104.883L51.4585 98.5973C50.4243 97.6535 48.8846 97.5462 47.7317 98.3375L40.0532 103.608C38.4628 104.7 36.2801 104.034 35.5546 102.236L32.0515 93.5572C31.5255 92.254 30.1844 91.4831 28.8055 91.6912L19.6215 93.0774C17.7194 93.3645 16.0389 91.8092 16.158 89.8718L16.7333 80.5181C16.8196 79.1137 15.9428 77.8318 14.6109 77.4155L5.7405 74.6429C3.90329 74.0687 3.05788 71.9315 3.99812 70.2382L8.53774 62.0627C9.21936 60.8351 8.98043 59.2963 7.95943 58.338L1.15946 51.9558C-0.248928 50.6339 -0.0918012 48.3382 1.4833 47.2243L9.08818 41.8462C10.23 41.0387 10.6763 39.5477 10.1684 38.2372L6.78573 29.5094C6.08511 27.7017 7.21365 25.7021 9.11164 25.3883L18.2755 23.8729C19.6515 23.6453 20.6946 22.4974 20.8004 21.0943L21.505 11.7495C21.6509 9.81409 23.5273 8.50672 25.3723 9.05504L34.2802 11.7024C35.6177 12.0999 37.051 11.5224 37.7496 10.3046L42.4018 2.1938C43.3654 0.513921 45.618 0.157677 47.0446 1.45958L53.9321 7.74543C54.9663 8.68924 56.506 8.79658 57.6589 8.00523L65.3374 2.7348Z" fill="#310E6A"/>
<path d="M41.5597 44.1715C40.8839 43.9673 40.2565 43.7778 39.6773 43.6028C39.098 43.4279 38.5735 43.2694 38.1037 43.1275C37.6404 42.9875 37.2414 42.867 36.9067 42.7659C37.1322 42.0194 37.3509 41.2953 37.5628 40.5939C37.7747 39.8924 38.01 39.1136 38.2685 38.2577L39.677 33.5951C39.9414 32.7198 40.1815 31.925 40.3973 31.2107C40.6131 30.4963 40.8357 29.7594 41.0651 29C41.8245 29.2294 42.674 29.486 43.6136 29.7699C44.5532 30.0537 45.5025 30.3404 46.4614 30.6301C47.356 30.9003 48.0856 31.205 48.6503 31.5442C49.217 31.8769 49.641 32.2402 49.9223 32.6342C50.212 33.0237 50.378 33.439 50.4203 33.8802C50.4709 34.3169 50.4224 34.7798 50.2747 35.2689C50.0977 35.8546 49.8338 36.3331 49.4828 36.7047C49.1337 37.0698 48.7298 37.3375 48.271 37.5079C47.8141 37.6719 47.3313 37.7473 46.8226 37.7341L46.7556 37.9561C47.2438 38.223 47.6614 38.5493 48.0084 38.935C48.3573 39.3143 48.586 39.7662 48.6945 40.2905C48.8114 40.8104 48.7658 41.4147 48.5578 42.1033C48.3867 42.6696 48.1369 43.1595 47.8083 43.5729C47.4881 43.9819 47.0577 44.2908 46.5171 44.4997C45.9764 44.7086 45.3014 44.7926 44.492 44.7518C43.6827 44.7109 42.7052 44.5175 41.5597 44.1715ZM40.1962 41.4315L42.4358 42.108C43.0987 42.3083 43.6584 42.3966 44.115 42.373C44.58 42.3449 44.9518 42.2184 45.2304 41.9936C45.511 41.7623 45.7135 41.4407 45.8379 41.0288C46.0323 40.3853 45.9457 39.8465 45.5782 39.4124C45.2172 38.9803 44.6151 38.6369 43.772 38.3822L40.7119 37.4578L41.3272 35.4209L44.2908 36.3161C44.8443 36.4833 45.3232 36.5367 45.7278 36.4763C46.1406 36.4114 46.4745 36.2594 46.7293 36.0204C46.9841 35.7813 47.1669 35.4784 47.2777 35.1115C47.4547 34.5259 47.4034 34.0329 47.1241 33.6325C46.8531 33.2275 46.3508 32.9143 45.6171 32.6926L43.0686 31.9228C42.9248 32.399 42.7789 32.8817 42.6312 33.3708C42.4834 33.8599 42.3182 34.407 42.1355 35.0119L41.0886 38.4775C40.9155 39.0503 40.7581 39.5716 40.6161 40.0414C40.4762 40.5048 40.3362 40.9681 40.1962 41.4315Z" fill="#F2D802"/>
<path d="M54.0122 48.1965C52.8023 47.831 51.8773 47.3128 51.2372 46.6419C50.5971 45.971 50.2093 45.1972 50.0739 44.3205C49.9384 43.4439 50.0194 42.5132 50.3168 41.5285C50.6123 40.5503 51.0475 39.7372 51.6225 39.0892C52.2059 38.4367 52.9028 38.0012 53.7133 37.7825C54.5238 37.5638 55.4246 37.6042 56.4157 37.9035C57.2716 38.1621 57.9544 38.5404 58.4641 39.0385C58.9822 39.5321 59.3111 40.1406 59.4507 40.864C59.5923 41.581 59.5212 42.4093 59.2373 43.3489C59.1615 43.5999 59.087 43.8232 59.0139 44.0188C58.9472 44.2164 58.8686 44.4068 58.7781 44.5902L56.9042 43.0866C56.9443 43.0004 56.9812 42.9132 57.0148 42.825C57.0504 42.7304 57.0809 42.6413 57.1061 42.5576C57.32 41.8497 57.3102 41.2428 57.0768 40.7368C56.8453 40.2245 56.4496 39.8837 55.8897 39.7146C55.4649 39.5863 55.0547 39.5958 54.6591 39.7431C54.2653 39.8841 53.91 40.1419 53.5932 40.5167C53.2763 40.8915 53.0323 41.3621 52.8612 41.9285L52.7475 42.3049C52.5589 42.9292 52.506 43.4996 52.5887 44.0162C52.6734 44.5264 52.9072 44.9728 53.2903 45.3553C53.6753 45.7315 54.2153 46.0245 54.9104 46.2345C55.1807 46.3162 55.4899 46.385 55.8382 46.4411C56.1949 46.4926 56.5625 46.5194 56.9411 46.5214C57.3198 46.5234 57.6846 46.4897 58.0357 46.4201L57.4772 48.5479C57.1957 48.5963 56.8763 48.6192 56.5189 48.6166C56.1615 48.614 55.7723 48.5772 55.3513 48.5062C54.9284 48.4416 54.482 48.3384 54.0122 48.1965ZM51.1422 42.2835L51.6058 40.7486L57.8258 42.5117L59.1076 43.4993L58.7781 44.5902L51.1422 42.2835Z" fill="#F2D802"/>
<path d="M62.5139 50.7647C62.0698 50.6305 61.6474 50.4713 61.2466 50.287C60.8522 50.1047 60.4904 49.9076 60.1611 49.6958C59.8318 49.4839 59.5514 49.2728 59.32 49.0625L60.1373 46.9497C60.3744 47.2109 60.6441 47.4574 60.9463 47.6891C61.2569 47.9164 61.5881 48.1218 61.94 48.3054C62.2938 48.4825 62.6542 48.6264 63.021 48.7373C63.3042 48.8228 63.5684 48.878 63.8137 48.903C64.0609 48.9215 64.2745 48.8771 64.4544 48.7699C64.6407 48.6647 64.7775 48.4672 64.865 48.1776C64.9253 47.9781 64.9041 47.7926 64.8014 47.6212C64.7051 47.4516 64.5158 47.2645 64.2335 47.0599C63.9512 46.8552 63.5579 46.5994 63.0537 46.2926C62.5494 45.9858 62.1308 45.6627 61.7979 45.3233C61.4734 44.9795 61.2594 44.5953 61.1559 44.1708C61.0588 43.7481 61.0968 43.2505 61.2698 42.6777C61.5614 41.7123 62.0958 41.0591 62.8731 40.718C63.6503 40.3769 64.5634 40.3648 65.6125 40.6817C66.0565 40.8158 66.477 40.9815 66.8739 41.1787C67.2728 41.3694 67.6263 41.571 67.9343 41.7834C68.2507 41.9914 68.5083 42.185 68.7069 42.3644L67.877 44.484C67.6373 44.2079 67.3622 43.9562 67.0516 43.729C66.743 43.4953 66.4375 43.2977 66.1352 43.1361C65.8328 42.9745 65.5755 42.8617 65.3631 42.7975C65.125 42.7256 64.8996 42.6927 64.6871 42.6987C64.4766 42.6983 64.292 42.7514 64.1334 42.858C63.9812 42.9665 63.8711 43.1334 63.803 43.3586C63.7467 43.5453 63.7421 43.723 63.7895 43.8918C63.8387 44.0542 63.9714 44.2312 64.1874 44.4228C64.4098 44.6164 64.7474 44.8589 65.2002 45.1502C65.8131 45.539 66.3105 45.9034 66.6924 46.2435C67.0806 46.5856 67.3359 46.9611 67.4581 47.3703C67.5823 47.773 67.5568 48.2639 67.3819 48.8431C67.1952 49.461 66.8968 49.9607 66.4865 50.3424C66.0827 50.7261 65.5513 50.9624 64.8924 51.0513C64.2399 51.1421 63.4471 51.0466 62.5139 50.7647Z" fill="#F2D802"/>
<path d="M72.3317 53.7304C71.6431 53.5224 71.0895 53.2393 70.671 52.8811C70.2544 52.5165 69.9883 52.0604 69.8728 51.5129C69.7573 50.9653 69.8133 50.315 70.0408 49.562C70.1827 49.0922 70.3256 48.6192 70.4694 48.143C70.6133 47.6667 70.7601 47.1809 70.9098 46.6853C71.0614 46.1833 71.216 45.6717 71.3734 45.1504C71.5309 44.6291 71.6942 44.0885 71.8633 43.5286C72.0753 42.8271 72.2706 42.1803 72.4495 41.5883C72.6283 40.9962 72.8111 40.3912 72.9977 39.7734L75.5578 40.0516C75.4101 40.5407 75.2701 41.0041 75.1379 41.4417C75.0076 41.8729 74.8745 42.3138 74.7384 42.7643C74.6023 43.2148 74.4516 43.7135 74.2864 44.2606L72.6854 49.5603C72.4968 50.1846 72.473 50.6936 72.6139 51.0873C72.7632 51.4765 73.1017 51.7508 73.6295 51.9102C73.8483 51.9763 74.0948 52.0087 74.3692 52.0073C74.6499 52.0078 74.9272 51.9617 75.2011 51.8688L74.7557 53.936C74.5637 53.9903 74.3347 54.016 74.0688 54.0129C73.8093 54.0118 73.5289 53.9868 73.2276 53.9379C72.9264 53.889 72.6277 53.8199 72.3317 53.7304ZM69.8423 44.2559L70.4051 42.3928L77.5197 44.542L76.9569 46.4051C76.3391 46.2185 75.718 46.0309 75.0938 45.8423C74.4695 45.6537 73.8645 45.471 73.2789 45.2941L69.8423 44.2559Z" fill="#F2D802"/>
<path d="M27 65.889C27.2255 65.1425 27.4442 64.4185 27.6561 63.717C27.868 63.0155 28.1033 62.2368 28.3618 61.3808L29.7703 56.7182C30.0347 55.843 30.2748 55.0482 30.4906 54.3338C30.7064 53.6194 30.929 52.8825 31.1584 52.1231C31.7054 52.2884 32.4294 52.5071 33.3304 52.7793C34.2379 53.0534 35.2804 53.3683 36.4582 53.7241C37.5522 54.0546 38.4211 54.468 39.0647 54.9645C39.7084 55.4609 40.1203 56.0734 40.3005 56.802C40.4826 57.5242 40.4191 58.397 40.11 59.4202C39.8437 60.3019 39.4466 61.0353 38.9187 61.6202C38.3928 62.1988 37.7111 62.5723 36.8737 62.7407C36.0382 62.9026 35.0123 62.7999 33.7959 62.4325C33.487 62.3391 33.1492 62.2371 32.7823 62.1263C32.4219 62.0174 32.068 61.9105 31.7204 61.8055C31.3794 61.7025 31.0865 61.614 30.842 61.5401L31.4864 59.4067L33.8515 60.1212C34.4951 60.3156 35.0471 60.3945 35.5076 60.3581C35.9681 60.3216 36.3464 60.162 36.6425 59.8792C36.947 59.5919 37.1828 59.1716 37.35 58.6181C37.4861 58.1676 37.5242 57.7858 37.4643 57.4728C37.4063 57.1533 37.2828 56.8877 37.0939 56.6762C36.905 56.4646 36.6799 56.2913 36.4188 56.1562C36.1576 56.0211 35.8918 55.9127 35.6215 55.8311L31.8663 54.6967L33.6974 53.3431C33.468 54.1025 33.2444 54.8426 33.0267 55.5634C32.8109 56.2778 32.5708 57.0726 32.3064 57.9478L31.0262 62.1857C30.7676 63.0416 30.5324 63.8204 30.3205 64.5218C30.1086 65.2233 29.8899 65.9473 29.6644 66.6939L27 65.889Z" fill="#F2D802"/>
<path d="M39.2329 69.5844C39.4429 68.8893 39.6461 68.2168 39.8424 67.5668C40.0388 66.9168 40.2575 66.1928 40.4985 65.3947L40.7902 64.4294C41.0098 63.7022 41.2324 62.9653 41.458 62.2187C41.6835 61.4722 41.91 60.7225 42.1374 59.9695L44.2605 60.4739L43.8029 62.3372L44.0153 62.4013C44.438 61.9321 44.8488 61.6067 45.2477 61.4252C45.6486 61.2373 46.0278 61.1447 46.3852 61.1473C46.7509 61.1454 47.0786 61.1882 47.3682 61.2757C47.5227 61.3224 47.6861 61.3858 47.8585 61.466C48.0374 61.5481 48.1975 61.6456 48.339 61.7586L47.3908 64.0952C47.1689 63.9931 46.9633 63.9064 46.7741 63.8352C46.5933 63.7595 46.3871 63.6867 46.1554 63.6167C45.9752 63.5622 45.7753 63.5264 45.5558 63.5093C45.3362 63.4921 45.1063 63.521 44.8659 63.5959C44.6276 63.6643 44.3804 63.7968 44.1243 63.9934C43.8683 64.1899 43.6083 64.4695 43.3442 64.8322L42.9126 66.2609C42.691 66.9946 42.483 67.6832 42.2886 68.3268C42.0961 68.9639 41.8949 69.63 41.6849 70.3251L39.2329 69.5844Z" fill="#F2D802"/>
<path d="M47.1624 71.9797C47.3723 71.2846 47.5755 70.6121 47.7719 69.9621C47.9682 69.3121 48.1869 68.5881 48.428 67.7901L48.7196 66.8247C48.9062 66.2069 49.0744 65.6502 49.2241 65.1547C49.3757 64.6527 49.5186 64.1797 49.6528 63.7356C49.7888 63.2851 49.9269 62.8282 50.0669 62.3648L52.5422 63.0283C52.4003 63.4981 52.2603 63.9614 52.1222 64.4184C51.9842 64.8753 51.8384 65.358 51.6848 65.8664C51.5332 66.3684 51.3621 66.9347 51.1716 67.5654L50.88 68.5308C50.6389 69.3288 50.4202 70.0528 50.2238 70.7028C50.0275 71.3528 49.8243 72.0253 49.6144 72.7204L47.1624 71.9797ZM51.7859 60.9984C51.3161 60.8565 50.9746 60.6269 50.7614 60.3097C50.5502 59.9861 50.5223 59.5668 50.6778 59.0519C50.8197 58.5821 51.0692 58.2677 51.4263 58.1087C51.7853 57.9433 52.2061 57.9334 52.6888 58.0793C53.1714 58.2251 53.5123 58.4685 53.7112 58.8095C53.9166 59.1525 53.9513 59.5492 53.8152 59.9997C53.6597 60.5145 53.4044 60.8483 53.0493 61.0008C52.7026 61.1489 52.2814 61.1481 51.7859 60.9984Z" fill="#F2D802"/>
<path d="M56.7543 75.0985C55.6796 74.7738 54.8309 74.2821 54.2081 73.6235C53.5938 72.9604 53.2041 72.193 53.0389 71.3214C52.8803 70.4518 52.9458 69.5376 53.2354 68.5786C53.527 67.6133 53.971 66.8063 54.5672 66.1577C55.1654 65.5027 55.8877 65.0643 56.7343 64.8424C57.5892 64.6161 58.5477 64.6633 59.6095 64.9841C59.9892 65.0988 60.357 65.2415 60.7128 65.4122C61.0685 65.5828 61.394 65.7725 61.6892 65.981C61.9927 66.1851 62.2518 66.3968 62.4665 66.6161L61.626 68.7009C61.3214 68.3841 61.0312 68.1244 60.7553 67.9217C60.4859 67.7209 60.2283 67.5623 59.9825 67.4459C59.7368 67.3296 59.5109 67.2403 59.305 67.1781C58.4941 66.9331 57.7653 66.9974 57.1187 67.3709C56.4786 67.7464 56.0244 68.3782 55.7561 69.2663C55.5792 69.852 55.5376 70.4083 55.6312 70.9352C55.7268 71.4557 55.96 71.9159 56.3308 72.3158C56.71 72.7113 57.2374 73.0111 57.9132 73.2152C58.1642 73.291 58.4219 73.3443 58.6865 73.3751C58.9511 73.4059 59.2193 73.4131 59.4911 73.3969C59.7648 73.3743 60.0367 73.3229 60.3066 73.243L59.804 75.4298C59.5541 75.4667 59.2717 75.4832 58.9569 75.4794C58.6504 75.471 58.3133 75.436 57.9457 75.3741C57.5762 75.3186 57.1791 75.2268 56.7543 75.0985Z" fill="#F2D802"/>
<path d="M66.3726 78.0461C65.1627 77.6806 64.2378 77.1624 63.5977 76.4915C62.9576 75.8206 62.5698 75.0468 62.4343 74.1701C62.2988 73.2935 62.3798 72.3628 62.6773 71.3782C62.9728 70.3999 63.408 69.5868 63.983 68.9388C64.5663 68.2864 65.2633 67.8508 66.0738 67.6321C66.8843 67.4134 67.785 67.4538 68.7761 67.7532C69.6321 68.0117 70.3149 68.39 70.8246 68.8881C71.3427 69.3817 71.6715 69.9902 71.8112 70.7136C71.9527 71.4306 71.8816 72.2589 71.5978 73.1985C71.522 73.4495 71.4475 73.6728 71.3744 73.8684C71.3076 74.066 71.229 74.2564 71.1385 74.4398L69.2647 72.9362C69.3047 72.85 69.3416 72.7628 69.3753 72.6746C69.4109 72.58 69.4413 72.4909 69.4666 72.4072C69.6804 71.6993 69.6706 71.0924 69.4372 70.5865C69.2057 70.0741 68.81 69.7333 68.2501 69.5642C67.8254 69.4359 67.4152 69.4454 67.0195 69.5928C66.6258 69.7337 66.2705 69.9915 65.9536 70.3663C65.6367 70.7412 65.3927 71.2117 65.2217 71.7781L65.1079 72.1546C64.9193 72.7788 64.8664 73.3492 64.9491 73.8658C65.0338 74.376 65.2677 74.8224 65.6507 75.205C66.0357 75.5811 66.5758 75.8742 67.2708 76.0841C67.5411 76.1658 67.8504 76.2346 68.1987 76.2907C68.5553 76.3422 68.9229 76.369 69.3016 76.371C69.6802 76.373 70.0451 76.3393 70.3961 76.2697L69.8376 78.3975C69.5562 78.4459 69.2367 78.4688 68.8793 78.4662C68.522 78.4636 68.1328 78.4268 67.7118 78.3558C67.2888 78.2912 66.8424 78.188 66.3726 78.0461ZM63.5026 72.1331L63.9663 70.5982L70.1863 72.3613L71.4681 73.349L71.1385 74.4398L63.5026 72.1331Z" fill="#F2D802"/>
</svg>
