<svg width="60" height="60" viewBox="0 0 60 60" fill="none" xmlns="http://www.w3.org/2000/svg">
<path d="M42.1875 9.375H40.3706C40.122 9.375 39.8835 9.47377 39.7077 9.64959C39.5319 9.8254 39.4331 10.0639 39.4331 10.3125C39.4331 10.5611 39.5319 10.7996 39.7077 10.9754C39.8835 11.1512 40.122 11.25 40.3706 11.25H42.1875C42.4361 11.25 42.6746 11.1512 42.8504 10.9754C43.0262 10.7996 43.125 10.5611 43.125 10.3125C43.125 10.0639 43.0262 9.8254 42.8504 9.64959C42.6746 9.47377 42.4361 9.375 42.1875 9.375ZM47.8312 9.375H46.0153C45.7667 9.375 45.5282 9.47377 45.3524 9.64959C45.1766 9.8254 45.0778 10.0639 45.0778 10.3125C45.0778 10.5611 45.1766 10.7996 45.3524 10.9754C45.5282 11.1512 45.7667 11.25 46.0153 11.25H47.8322C48.0808 11.25 48.3193 11.1512 48.4951 10.9754C48.6709 10.7996 48.7697 10.5611 48.7697 10.3125C48.7697 10.0639 48.6709 9.8254 48.4951 9.64959C48.3193 9.47377 48.0799 9.375 47.8312 9.375ZM53.4187 9.375H51.6C51.3514 9.375 51.1129 9.47377 50.9371 9.64959C50.7613 9.8254 50.6625 10.0639 50.6625 10.3125C50.6625 10.5611 50.7613 10.7996 50.9371 10.9754C51.1129 11.1512 51.3514 11.25 51.6 11.25H53.4169C53.6655 11.25 53.904 11.1512 54.0798 10.9754C54.2556 10.7996 54.3544 10.5611 54.3544 10.3125C54.3544 10.0639 54.2556 9.8254 54.0798 9.64959C53.904 9.47377 53.6655 9.375 53.4169 9.375H53.4187ZM21.6206 9.375H6.5625C6.31386 9.375 6.0754 9.47377 5.89959 9.64959C5.72377 9.8254 5.625 10.0639 5.625 10.3125C5.625 10.5611 5.72377 10.7996 5.89959 10.9754C6.0754 11.1512 6.31386 11.25 6.5625 11.25H21.6206C21.8693 11.25 22.1077 11.1512 22.2835 10.9754C22.4594 10.7996 22.5581 10.5611 22.5581 10.3125C22.5581 10.0639 22.4594 9.8254 22.2835 9.64959C22.1077 9.47377 21.8693 9.375 21.6206 9.375Z" fill="#310E6A"/>
<path d="M57.1875 5.625H2.8125C2.56386 5.625 2.3254 5.72377 2.14959 5.89959C1.97377 6.0754 1.875 6.31386 1.875 6.5625V53.4375C1.875 53.6861 1.97377 53.9246 2.14959 54.1004C2.3254 54.2762 2.56386 54.375 2.8125 54.375H57.1875C57.4361 54.375 57.6746 54.2762 57.8504 54.1004C58.0262 53.9246 58.125 53.6861 58.125 53.4375V6.5625C58.125 6.31386 58.0262 6.0754 57.8504 5.89959C57.6746 5.72377 57.4361 5.625 57.1875 5.625ZM3.75 7.5H56.25V13.125H3.75V7.5ZM3.75 52.5V15H56.25V52.5H3.75Z" fill="#310E6A"/>
<path d="M50.7307 40.1429C52.6098 37.9217 53.5577 35.0601 53.3762 32.1564C53.1948 29.2526 51.898 26.5314 49.7569 24.5614C47.6158 22.5915 44.7962 21.5254 41.8874 21.5859C38.9786 21.6465 36.2057 22.829 34.1484 24.8862C32.0912 26.9435 30.9087 29.7164 30.8481 32.6252C30.7876 35.534 31.8537 38.3536 33.8236 40.4947C35.7936 42.6357 38.5148 43.9326 41.4186 44.114C44.3224 44.2955 47.1839 43.3476 49.4051 41.4685L52.7547 44.8191C52.9305 44.995 53.169 45.0939 53.4177 45.094C53.6664 45.0941 53.9049 44.9954 54.0808 44.8196C54.2568 44.6438 54.3556 44.4053 54.3557 44.1566C54.3558 43.9079 54.2571 43.6694 54.0813 43.4935L50.7307 40.1429ZM32.7729 32.8866C32.7729 31.0324 33.3227 29.2198 34.3528 27.6781C35.383 26.1364 36.8472 24.9348 38.5602 24.2252C40.2733 23.5157 42.1583 23.33 43.9768 23.6917C45.7954 24.0535 47.4659 24.9464 48.777 26.2575C50.0881 27.5686 50.981 29.2391 51.3427 31.0576C51.7045 32.8762 51.5188 34.7612 50.8092 36.4743C50.0997 38.1873 48.8981 39.6515 47.3563 40.6816C45.8146 41.7118 44.0021 42.2616 42.1479 42.2616C39.6624 42.2586 37.2795 41.2699 35.522 39.5124C33.7645 37.7549 32.7758 35.3721 32.7729 32.8866Z" fill="#310E6A"/>
<path d="M47.8247 28.125H36.6216C36.3729 28.125 36.1345 28.2238 35.9586 28.3996C35.7828 28.5754 35.6841 28.8139 35.6841 29.0625C35.6841 29.3111 35.7828 29.5496 35.9586 29.7254C36.1345 29.9012 36.3729 30 36.6216 30H47.8247C48.0733 30 48.3118 29.9012 48.4876 29.7254C48.6634 29.5496 48.7622 29.3111 48.7622 29.0625C48.7622 28.8139 48.6634 28.5754 48.4876 28.3996C48.3118 28.2238 48.0733 28.125 47.8247 28.125ZM47.8247 31.875H36.6216C36.3729 31.875 36.1345 31.9738 35.9586 32.1496C35.7828 32.3254 35.6841 32.5639 35.6841 32.8125C35.6841 33.0611 35.7828 33.2996 35.9586 33.4754C36.1345 33.6512 36.3729 33.75 36.6216 33.75H47.8247C48.0733 33.75 48.3118 33.6512 48.4876 33.4754C48.6634 33.2996 48.7622 33.0611 48.7622 32.8125C48.7622 32.5639 48.6634 32.3254 48.4876 32.1496C48.3118 31.9738 48.0733 31.875 47.8247 31.875ZM47.8125 35.625H36.6094C36.3607 35.625 36.1223 35.7238 35.9465 35.8996C35.7706 36.0754 35.6719 36.3139 35.6719 36.5625C35.6719 36.8111 35.7706 37.0496 35.9465 37.2254C36.1223 37.4012 36.3607 37.5 36.6094 37.5H47.8125C48.0611 37.5 48.2996 37.4012 48.4754 37.2254C48.6512 37.0496 48.75 36.8111 48.75 36.5625C48.75 36.3139 48.6512 36.0754 48.4754 35.8996C48.2996 35.7238 48.0611 35.625 47.8125 35.625ZM25.3125 21.5625H6.5625C6.31386 21.5625 6.0754 21.6613 5.89959 21.8371C5.72377 22.0129 5.625 22.2514 5.625 22.5V37.5C5.625 37.7486 5.72377 37.9871 5.89959 38.1629C6.0754 38.3387 6.31386 38.4375 6.5625 38.4375H25.3125C25.5611 38.4375 25.7996 38.3387 25.9754 38.1629C26.1512 37.9871 26.25 37.7486 26.25 37.5V22.5C26.25 22.2514 26.1512 22.0129 25.9754 21.8371C25.7996 21.6613 25.5611 21.5625 25.3125 21.5625ZM24.375 23.4375V35.1384L18.4434 29.2069C18.2676 29.0311 18.0292 28.9324 17.7806 28.9324C17.532 28.9324 17.2936 29.0311 17.1178 29.2069L14.0034 32.3213L12.8728 31.1906C12.697 31.0149 12.4586 30.9161 12.21 30.9161C11.9614 30.9161 11.723 31.0149 11.5472 31.1906L7.5 35.2369V23.4375H24.375ZM23.1656 36.5625H8.84625L12.2306 33.1781L13.3612 34.3097C13.5371 34.4854 13.7755 34.5842 14.0241 34.5842C14.2727 34.5842 14.5111 34.4854 14.6869 34.3097L17.8003 31.1953L23.1656 36.5625ZM6.5775 42.1875H15.9525C16.2011 42.1875 16.4396 42.0887 16.6154 41.9129C16.7912 41.7371 16.89 41.4986 16.89 41.25C16.89 41.0014 16.7912 40.7629 16.6154 40.5871C16.4396 40.4113 16.2011 40.3125 15.9525 40.3125H6.5775C6.32886 40.3125 6.0904 40.4113 5.91459 40.5871C5.73877 40.7629 5.64 41.0014 5.64 41.25C5.64 41.4986 5.73877 41.7371 5.91459 41.9129C6.0904 42.0887 6.32886 42.1875 6.5775 42.1875ZM25.3275 44.0625H6.5775C6.32886 44.0625 6.0904 44.1613 5.91459 44.3371C5.73877 44.5129 5.64 44.7514 5.64 45C5.64 45.2486 5.73877 45.4871 5.91459 45.6629C6.0904 45.8387 6.32886 45.9375 6.5775 45.9375H25.3275C25.5761 45.9375 25.8146 45.8387 25.9904 45.6629C26.1662 45.4871 26.265 45.2486 26.265 45C26.265 44.7514 26.1662 44.5129 25.9904 44.3371C25.8146 44.1613 25.5761 44.0625 25.3275 44.0625Z" fill="#310E6A"/>
</svg>
